<svg width="32" height="32" viewBox="0 0 32 32" fill="none" xmlns="http://www.w3.org/2000/svg">
<mask id="mask0_3620_2200" style="mask-type:alpha" maskUnits="userSpaceOnUse" x="0" y="0" width="32" height="32">
<rect width="32" height="32" fill="#00FFF0"/>
</mask>
<g mask="url(#mask0_3620_2200)">
<path d="M6.79967 21.4026C6.31079 20.5582 5.94412 19.6915 5.69967 18.8026C5.45523 17.9137 5.33301 17.0026 5.33301 16.0693C5.33301 13.0915 6.36634 10.5582 8.43301 8.46927C10.4997 6.38038 13.0219 5.33594 15.9997 5.33594H16.233L14.0997 3.2026L15.9663 1.33594L21.2997 6.66927L15.9663 12.0026L14.0997 10.1359L16.233 8.0026H15.9997C13.7775 8.0026 11.8886 8.78594 10.333 10.3526C8.77745 11.9193 7.99967 13.8248 7.99967 16.0693C7.99967 16.647 8.06634 17.2137 8.19967 17.7693C8.33301 18.3248 8.53301 18.8693 8.79967 19.4026L6.79967 21.4026ZM16.033 30.6693L10.6997 25.3359L16.033 20.0026L17.8997 21.8693L15.7663 24.0026H15.9997C18.2219 24.0026 20.1108 23.2193 21.6663 21.6526C23.2219 20.0859 23.9997 18.1804 23.9997 15.9359C23.9997 15.3582 23.933 14.7915 23.7997 14.2359C23.6663 13.6804 23.4663 13.1359 23.1997 12.6026L25.1997 10.6026C25.6886 11.447 26.0552 12.3137 26.2997 13.2026C26.5441 14.0915 26.6663 15.0026 26.6663 15.9359C26.6663 18.9137 25.633 21.447 23.5663 23.5359C21.4997 25.6248 18.9774 26.6693 15.9997 26.6693H15.7663L17.8997 28.8026L16.033 30.6693Z" fill="#00FFF0"/>
</g>
</svg>
