<svg width="32" height="32" viewBox="0 0 32 32" fill="none" xmlns="http://www.w3.org/2000/svg">
<mask id="mask0_3620_2206" style="mask-type:alpha" maskUnits="userSpaceOnUse" x="0" y="0" width="32" height="32">
<rect width="32" height="32" fill="#00FFF0"/>
</mask>
<g mask="url(#mask0_3620_2206)">
<path d="M13.8006 22.6693L21.334 15.1359L19.4006 13.2026L13.7673 18.8359L10.9673 16.0359L9.06732 17.9359L13.8006 22.6693ZM8.66732 26.6693C6.64509 26.6693 4.91732 25.9693 3.48398 24.5693C2.05065 23.1693 1.33398 21.4582 1.33398 19.4359C1.33398 17.7026 1.85621 16.1582 2.90065 14.8026C3.9451 13.447 5.31176 12.5804 7.00065 12.2026C7.55621 10.1582 8.66732 8.5026 10.334 7.23594C12.0006 5.96927 13.8895 5.33594 16.0006 5.33594C18.6006 5.33594 20.8062 6.24149 22.6173 8.0526C24.4284 9.86371 25.334 12.0693 25.334 14.6693C26.8673 14.847 28.1395 15.5082 29.1506 16.6526C30.1618 17.797 30.6673 19.1359 30.6673 20.6693C30.6673 22.3359 30.084 23.7526 28.9173 24.9193C27.7506 26.0859 26.334 26.6693 24.6673 26.6693H8.66732ZM8.66732 24.0026H24.6673C25.6006 24.0026 26.3895 23.6804 27.034 23.0359C27.6784 22.3915 28.0006 21.6026 28.0006 20.6693C28.0006 19.7359 27.6784 18.947 27.034 18.3026C26.3895 17.6582 25.6006 17.3359 24.6673 17.3359H22.6673V14.6693C22.6673 12.8248 22.0173 11.2526 20.7173 9.9526C19.4173 8.6526 17.8451 8.0026 16.0006 8.0026C14.1562 8.0026 12.584 8.6526 11.284 9.9526C9.98398 11.2526 9.33398 12.8248 9.33398 14.6693H8.66732C7.37843 14.6693 6.27843 15.1248 5.36732 16.0359C4.45621 16.947 4.00065 18.047 4.00065 19.3359C4.00065 20.6248 4.45621 21.7248 5.36732 22.6359C6.27843 23.547 7.37843 24.0026 8.66732 24.0026Z" fill="#00FFF0"/>
</g>
</svg>
