<svg width="32" height="32" viewBox="0 0 32 32" fill="none" xmlns="http://www.w3.org/2000/svg">
<mask id="mask0_3620_2184" style="mask-type:alpha" maskUnits="userSpaceOnUse" x="0" y="0" width="32" height="32">
<rect width="32" height="32" fill="#00FFF0"/>
</mask>
<g mask="url(#mask0_3620_2184)">
<path d="M10.6667 26.6693C9.93333 26.6693 9.30556 26.4082 8.78333 25.8859C8.26111 25.3637 8 24.7359 8 24.0026V20.0026H12V17.0026C11.2222 16.9582 10.4833 16.7859 9.78333 16.4859C9.08333 16.1859 8.44444 15.7359 7.86667 15.1359V13.6693H6.33333L2 9.33594C2.8 8.31371 3.78889 7.59149 4.96667 7.16927C6.14444 6.74705 7.33333 6.53594 8.53333 6.53594C9.13333 6.53594 9.71667 6.58038 10.2833 6.66927C10.85 6.75816 11.4222 6.92483 12 7.16927V5.33594H28V22.6693C28 23.7804 27.6111 24.7248 26.8333 25.5026C26.0556 26.2804 25.1111 26.6693 24 26.6693H10.6667ZM14.6667 20.0026H22.6667V22.6693C22.6667 23.047 22.7944 23.3637 23.05 23.6193C23.3056 23.8748 23.6222 24.0026 24 24.0026C24.3778 24.0026 24.6944 23.8748 24.95 23.6193C25.2056 23.3637 25.3333 23.047 25.3333 22.6693V8.0026H14.6667V8.8026L22.6667 16.8026V18.6693H20.8L17 14.8693L16.7333 15.1359C16.4222 15.447 16.0944 15.7248 15.75 15.9693C15.4056 16.2137 15.0444 16.4026 14.6667 16.5359V20.0026ZM7.46667 11.0026H10.5333V13.8693C10.8 14.047 11.0778 14.1693 11.3667 14.2359C11.6556 14.3026 11.9556 14.3359 12.2667 14.3359C12.7778 14.3359 13.2389 14.2582 13.65 14.1026C14.0611 13.947 14.4667 13.6693 14.8667 13.2693L15.1333 13.0026L13.2667 11.1359C12.6222 10.4915 11.9 10.0082 11.1 9.68594C10.3 9.36371 9.44444 9.2026 8.53333 9.2026C8.08889 9.2026 7.66667 9.23594 7.26667 9.3026C6.86667 9.36927 6.46667 9.46927 6.06667 9.6026L7.46667 11.0026ZM20 22.6693H10.6667V24.0026H20.2C20.1333 23.8026 20.0833 23.5915 20.05 23.3693C20.0167 23.147 20 22.9137 20 22.6693Z" fill="#00FFF0"/>
</g>
</svg>
