<?xml version="1.0" encoding="UTF-8"?>
<svg id="Livello_1" data-name="Livello 1" xmlns="http://www.w3.org/2000/svg" version="1.1" viewBox="0 0 500 500">
  <defs>
    <style>
      .cls-1 {
        fill: #000;
        stroke-width: 0px;
      }
    </style>
  </defs>
  <path class="cls-1" d="M450.2,124.4c-1.1-.9-1.7-1.4-2.7-2.2-1,11.2,2.4,21.4,5.4,31.7-4.6-10.6-9.3-21.2-13.6-31-3.1.7-5.1,1.7-7.1,1.5-3.1-.3-3.9,1.1-3.5,3.6.5,2.7,1,5.5,2.1,8,.5,1.1,2.4,1.5,3.7,2.2.7-.5,1.3-1,2-1.4,2,8.7,4,17.5,6,26.2-.3.2-.5.3-.8.5-1.5-2-3-4.1-4.6-6.1-.5.2-.9.4-1.4.6,2.1,5.5,4.2,11.1,6.5,17.1-3.3,4.4-1.3,9.7.1,14.9.3,1,2.6,1.5,4.2,2.3-2.2,7.9-4.6,16.4-6.9,24.7-.5-.8-1.3-2.3-2.4-4.2-2.4,9.2-4,18.1-7,26.6-3.1,8.7-7.4,16.9-11.2,25.3-.7-.8-1.9-2.2-3.2-3.6-7,5.2-6.2,13.5-8.3,20.6v-4.3c-.8.5-1.5.8-2,1.2-10.1,8.5-19.4,18.1-30.3,25.2-33.2,21.4-68.7,22.4-105.2,9.7-2.5-.9-4.4-3.6-6.6-5.5-8.2-7.2-16.8-14-24.5-21.6-20.3-20-27.4-45-23.1-72.4,2.3-14.7,7.1-29.6,18.8-40.7.7-.6,1.2-1.5,1.6-2.4,16.9-30.6,69.6-45.4,104.2-7.3-1.6-.8-2.3-1-2.9-1.4-43.1-28.4-101.4-2.4-108.9,48.6-.6,3.9-.9,7.8-.9,11.7,0,1.7.9,3.3,1.2,5,8.7,48.3,34.6,78.1,86.2,80.3,2.4.1,4.9-.3,7.2-.9,6.6-1.5,13.4-2.3,19.5-4.9,7.2-3.1,13.6-7.8,20-12.7-.5,1.1-1,2.3-2,4.8,3.1-1.7,5.3-2.6,6.9-3.9,8.8-7.3,17.6-14.5,26-22.2,1.8-1.6,2.5-5.2,2.6-7.8.1-5,1.2-8.8,6.1-11.1,1.8-.8,3.6-2.8,4.3-4.7,2.1-5.2,4.1-10.6,5.4-16.1.7-3,3.2-6.7-.8-9.6-.3-.2.1-1.5.1-2.4.3-14.5,2.1-29.1.7-43.3-2.7-27.6-13.9-52-31.7-73.5-31.4-38-72.2-49.2-119.4-43.2-6,.8-12.1.4-18,1.5-4.2.8-8.2,2.9-12.2,4.6-7.2,3.2-14.4,6.6-21.6,10-.5.2-1,.7-1.3,2,2.8-.4,5.6-.8,8.5-1.2.1.5.2.9.4,1.4-3.8.9-7.6,2.4-11.5,2.6-12.6.6-21.5,7.4-29.2,16.8,1.7-.6,3.4-1.2,5.1-1.7.2.2.3.5.5.7-1.4,1.1-2.7,3.1-4.1,3.3-9.3.9-16.4,6.1-23.3,11.6-15.8,12.5-29.3,27.2-41,44.1,1.3.6,2.4,1.1,4,1.8-2,4.2-3.6,8.6-6,12.6-7.6,13-12.9,26.4-13.3,41.8-.5,16.2-2.4,32.4-3.1,48.7-.4,8.6,1.1,17.1,5.5,25,1.3,2.5,0,6.3.2,9.5.2,2.5.3,5.2,1.4,7.4,1.4,3.1,1.3,6.2,1.8,9.3.7,5,3.2,9.9,5.9,14.3,1.4,2.3,4.7,3.5,7.2,5.1,2.9,1.8,6.8,2.9,8.6,5.5,3.6,4.9,6.1,10.6,9,16-.4.4-.8.8-1.2,1.2-2.3-1.6-4.7-3.2-7-4.9-.4.2-.8.4-1.2.6,3.4,6.1,6.8,12.3,10.3,18.4,1.2,2.1,3.7,3.9.8,6.7-.5.4.6,2.9,1.4,4.1,1.4,2,3.2,3.7,3.8,5.7.7,2.3.9,5,2.2,7,5.5,8.4,11.4,16.6,17.3,25.1,1.1-.7,1.8-1.1,2.6-1.6.2.2.4.4.5.7,3.8,6.6,7.5,13.2,11.4,19.7.4.7,1.7,1.4,2.4,1.2,4.8-1.3,6.7,2.2,9.4,5,4.4,4.4,9.5,8.2,14.6,12.4-.4.7-1.5,2.2-2.4,3.7,8.4,4.7,16.7,9.3,24.9,14,.3-.3.6-.6.9-.9-.4-1.2-.8-2.3-1.7-4.9,9.5,9.5,16.8,19.6,29.1,22.8,11.6,3,23.3,5.4,34.9,8.4-15.1,0-30.2,0-45-4.2-59.9-17.5-102.8-56.4-135-108.2-20.6-33.3-33.3-69.5-35.7-108.8-1.2-19.8-.3-39.7-.5-59.6,0-7.6-.7-15.2-1.1-22.8,0-1.1,0-2.3.4-3.3,6.9-18.7,13.9-37.4,21-56.1.6-1.6,2.8-2.5,4.1-3.8,1.8-1.8,4-3.3,5.3-5.4,1.7-2.7,2.8-5.8,4.1-8.8,6.4-16.1,16-30.1,28.7-41.9,7.9-7.3,15.8-14.5,23.8-21.9.4.8.8,1.6.9,1.7,10.2-6.2,20-12.8,30.4-18.3,10.5-5.5,21.7-9.5,32.3-15,10.8-5.6,22.8-2.1,33.5-6.8l.5,1.4c-1.9,1.2-3.7,2.4-5.9,3.8,6.9.4,13.3.8,20.9,1.2-2,1.3-3,1.9-4,2.5,0,.3.1.6.2.9,10.8-.7,21.7-1.4,33.2-2.1,0,.3.1-.8.6-3.2,15,5.8,29.7,11.3,44.2,17.4,3.9,1.6,7.2,2,11.2,1.2,3.6-.7,7.4-.8,11-.2,1.8.3,3.4,2.5,5,3.9,4,3.6,8.1,7.2,12.1,10.9l1.4-1.3c-1.2-1.5-2.4-3-3.5-4.4,21.4,5.2,62.6,53.7,69.7,82.8Z"/>
  <path class="cls-1" d="M223.8,284.5c7.8,8.2,15.7,16.4,23.5,24.6.4-.4.8-.7,1.1-1.1-2.5-2.8-4.9-5.7-7.4-8.5l.5-.7c.9.6,1.9,1.3,2.8,1.9,5.5,4,10.6,9.2,16.7,11.6,11.5,4.5,20.2,14.7,33.4,15.5,10.4.6,20.7,1.8,31.1,2.8-6.7,2.7-13.9,3-20.8,2.1-31.8-4.1-58.4-17.9-78.6-43.2-1.1-1.4-2-2.9-3-4.4.2-.2.4-.5.6-.7Z"/>
</svg>