<?xml version="1.0" encoding="UTF-8"?>
<svg id="Livello_1" data-name="Livello 1" xmlns="http://www.w3.org/2000/svg" xmlns:xlink="http://www.w3.org/1999/xlink" version="1.1" viewBox="0 0 1080 1080">
  <defs>
    <style>
      .cls-1 {
        fill: #222b3d;
      }

      .cls-1, .cls-2, .cls-3, .cls-4, .cls-5, .cls-6, .cls-7 {
        stroke-width: 0px;
      }

      .cls-2 {
        fill: #172e4d;
      }

      .cls-3 {
        fill: #15e0ed;
      }

      .cls-8 {
        filter: url(#drop-shadow-1);
      }

      .cls-4 {
        fill: #000;
      }

      .cls-5 {
        fill: #374763;
      }

      .cls-6 {
        fill: #303d57;
      }

      .cls-7 {
        fill: #5872a3;
      }
    </style>
    <filter id="drop-shadow-1" filterUnits="userSpaceOnUse">
      <feOffset dx="7" dy="7"/>
      <feGaussianBlur result="blur" stdDeviation="12"/>
      <feFlood flood-color="#000" flood-opacity=".7"/>
      <feComposite in2="blur" operator="in"/>
      <feComposite in="SourceGraphic"/>
    </filter>
  </defs>
  <circle class="cls-3" cx="540" cy="540" r="512"/>
  <g class="cls-8">
    <path class="cls-1" d="M773.4,573.6l-1,2c-12.2.6-2-6.7-11.4-6.9-7.4-.1-89.5,18.4-108.1,21.7-2.5-5.2-15.6-21.8-20.2-28.6-2-.4-3.7,3.5-4.4,4.9-.2.4.2,1.5,0,2-13.7-5.6-29.6-11-44.4-11.8,0-.4-1.9-4.9-3.9-5.9.9-1.2,2.2-2.3,2-3.9l1-1h1c32.6,8.6,171.3,17.9,184.1,21.7,3.5,1,4.6,2.4,5.4,5.9Z"/>
    <path class="cls-1" d="M609.6,618c-.2.3-4.7-1.4-3.9,4.4q3,15.5,5.9,31.1c0,4.1-2.9,8.4-3,8.9-2.1-1.4-6,1.2-7.9-.5-1.5-1.4-6.4-35.5-7.9-40.5-1.9-1.7-18.6,1.1-22.7,1.5-9.7.8-19.8,3-29.6,3-1.5,0-2.2-.9-4.9-1-10.6-.3-21.1-2.1-31.6-3-9.6-.8-19.1-2-28.6-3,10.4-3.3,30.5,3.1,45.4,2,1.5-.1,4.9,0,5.9-1,1.7-1.7.9-3,1-4.9h2c23.8,0,47.4-4.6,71.1-5.9,10.1-.6,18.1-4.5,8.9,8.9Z"/>
    <path class="cls-2" d="M608.5,663.3c-1.3,6.7-7.2,31.1-8.9,35.9-.7,1.9-1.4,4.8-3,3q-13.3-39.7-26.6-79.3c4.1-.4,20.8-3.3,22.7-1.5,1.5,5.1,6.4,40,7.9,41.4,1.9,1.8,5.8-.9,7.9.5Z"/>
    <path class="cls-7" d="M644,638c1.7-.4,1.7-7.1,3,2,.8,5.6-.6,14.5,0,20.7-3.9-.1-3.7-1.5-3.9-1.5,3.7-4.2-17-7.8-27.1-10.1-3.3-2.1-1.9-6.5-2.5-9.1,7.8-3.3,11.7-.8,12.3-1,.9-.2,1.4-2,1.5-2,3-1,5.4-2,7.9-4,1.7,3.4,4.5,6.1,8.9,5.1Z"/>
    <path class="cls-7" d="M609.5,617.8c3,7,2.3,14.9,3.9,22.2.6,2.6-.9,7,2.5,9.1,10.2,2.3,30.8,6,27.1,10.1-14.3-1.6-27.4-9.1-31.6-5.1q-3-15.9-5.9-31.8c-.8-5.9,3.7-4.2,3.9-4.5Z"/>
    <path class="cls-2" d="M655,638.7c-2.7-2.5-8.8-3.8-7.9,1-1.3-8.9-1.3-2.4-3-2-.2-2-3.7-2.2-3.9-3.5,0-.2,1.3-2.7,2-4.4.2-.5,2.4.8,4.9-8.9.3.9,7.1,16.3,7.9,17.8Z"/>
    <path class="cls-6" d="M664.9,443.3c29.3,3.4,58.6,6.6,87.8,9.9-5.6,3.8,28.2,7.2,41.9,8.9,21.4,2.6,59.3,7.8,76.5,4.9,18.4,2.1,36.9,4.4,55.3,6.9l2,.5-1.5,1.5c-13.6,7.7-26,17.1-39,25.7-37.6,24.9-76.5,47.7-114.5,72.1-.9-3.5-2-4.9-5.4-5.9-12.8-3.8-151.5-13.1-184.1-21.7,9.3-13.9,18.2-28.4,28.6-41.5,9.2-11.6,27.6-28.4,37.5-43.9-2.4-1.8-1.8-2.9-2-3.5,3.8-1.9,8.3-10.3,10.9-11.8,2.1-1.3,2.6-2.6,5.9-2Z"/>
    <path class="cls-2" d="M871.1,467c-17.2,2.8-55.1-2.3-76.5-4.9-13.7-1.7-47.5-5.1-41.9-8.9,39.5,4.4,79,9.2,118.4,13.8Z"/>
    <path class="cls-6" d="M437.8,317.9c5.5,14.7,22.7,41.5,22.7,41.5l-19.7,16.8s-37,37.5-74,75c-4,.6-19.9-6.2-25.7-7.9-25.1-11-82.9-44.4-82.9-44.4l-6.9-2.5s8.5,23.8,16.8,33.1c.4,1.7,1.2,3.2,1,4.9-22.2-21.1-41.5-44.8-61.2-68.1-9.4-11-18.3-22.5-27.6-33.6q128.8-7.4,257.6-14.8Z"/>
    <path class="cls-2" d="M462.5,358.4c0,0,.3,1.4-2,1-8.4-13.2-17.2-26.8-22.7-41.5,5.7,1.3,21.8,33.5,24.7,40.5Z"/>
    <path class="cls-1" d="M449.7,575.5c3.6,3.3,10.9,9.9,10.9,9.9l-4.9,10.9s-2.8,6.6-3.9,9.9c-2.2,1.3-6,1.8-6,1.8,0,0-93-13.7-138.6-18.6,23.5-6.2,48-8.5,70.6-17.8,21.5-1.8,42.7-1.9,64.2-3,2.4,2.4,5.3,4.6,7.9,6.9Z"/>
    <path class="cls-1" d="M377.6,571.6c-22.6,9.3-47.1,11.6-70.6,17.8,45.5,4.9,90.9,10.8,136.2,17.8,2.4.4,6.2.3,8.4-1l1.5,3c22.6,2.5,46.1,7.1,67.6,11.8-14.9,1.2-35-5.3-45.4-2-55.9-5.8-121-14.2-176.7-22.7-3-.5-5.7-1.6-8.9-1-.9-4.8-1.6-4.3-3.9-6.9-.6-1.5,1.6-2.7,2.5-3,17.2-5.5,69.5-12.2,89.3-13.8Z"/>
    <path class="cls-5" d="M466.5,553.8q-8.4,10.9-16.8,21.7c-2.6-2.3-5.4-4.5-7.9-6.9-4.9-4.8-10.2-9.2-14.8-14.3,0-1.2,8.5-6.7,9.9-7.4,1.6-.8,5.7-.8,6.9-3,7.6,2.9,15.2,6.8,22.7,9.9Z"/>
    <path class="cls-5" d="M300.7,500.5c-1.3,1.2-3.6,3.5-4.9,4.9-2.6,2.8-5.2,5.7-7.9,8.4,28.6,2.5,57.2,6.2,85.9,13.3,18.1,4.5,37.6,10.8,55.3,16.8,2.6.9,5.3,1.9,7.9,3-1.3.7-10,6.2-9.9,7.4,4.6,5.1,9.9,9.5,14.8,14.3-21.5,1.1-42.7,1.2-64.2,3-19.8,1.6-72.1,8.3-89.3,13.8-.9.3-3,1.5-2.5,3-6.8-7.7-117-90.6-129.3-102.6-1.5-1.5-4.9-5-4.9-6.9q74.5,10.9,149,21.7Z"/>
    <path class="cls-5" d="M361.8,514.3s54.8,19.2,81.9,29.6c-1.2,2.2-5.3,2.1-6.9,3-2.6-1-5.3-2.1-7.9-3,5.1-.3,14.8,2.3,3.5-3-2.7-1.2-53.5-19.9-56.3-18.8-.4.2-1.7,3.8-2.5,4.9-28.6-7.1-57.3-10.9-85.9-13.3,2.7-2.7,7.9-8.4,7.9-8.4l66.1,8.9Z"/>
    <path class="cls-5" d="M429,543.9c-17.7-6-37.2-12.3-55.3-16.8.8-1.1,2-4.8,2.5-4.9,2.8-1.1,53.6,17.5,56.3,18.8,11.4,5.3,1.6,2.7-3.5,3Z"/>
    <path class="cls-7" d="M772.4,575.5c-2.1,70.7-.5,141.5-1,212.2,0,2.6,0,5.3,0,7.9-.1,16.5,1.9,52.5-1,66.1q-114.5,28.6-229,57.2c0-.3,0-.7,0-1q-.5-146.1-1-292.2c9.8,0,47.6-7.2,57.3-8.1,13.3,38.7-1.9,4.7,11.4,43.4,1.6,1.7-10.2,38-9.5,36.2,1.7-4.7,8.9-35,8.9-35,0,0,3.6-30.6,3.5-34.7,4.2-4,13.1-1.7,27.4,0,.2,0,3.6,32.2,7.6,32.3-.6-6.1-6.1-24.9-6.9-30.4-.9-4.8,12.1,6.7,14.8,9.1,3.8,7.2-22.9,8.2-21.4-7.3,0-.1-5.6-10.8-5.2-11.7.5-5.7,5.9-22,3-28,18.6-3.4,122.3-23.3,129.7-23.1,9.3.2-.9,7.5,11.4,6.9Z"/>
    <path class="cls-6" d="M298.7,596.3q24.9,27.6,49.8,55.3c23.7,2.4,132.8,23.7,140.2,23.7,2.1,0,4,.6,5.4-1.5,3.2-5.3,6.2-11.3,9.9-16.3,10.4-14,16.9-22.3,31.6-32.6,2.7,0,3.5,1,4.9,1q.5,146.1,1,292.2c-2.3.3-4.8-1.7-6.4-3-36.6-29-72.1-59.7-108.6-88.8-1.2-.3-4.3,1.5-9.4,2-42.7,4.1-85.4,7.1-128.3,9.9-.3-15.7,0-31.7,0-47.4,0-.2,1,1.1,1-3.9-.1-63.8,0-127.7,0-191.5,3.2-.6,5.9.5,8.9,1Z"/>
    <g>
      <path class="cls-6" d="M541.5,918c0,.3,0,.7,0,1-.2,1-1.6,2.7-2,3.9-28.8-15.9-156.7-41.3-194.4-46.4,15-15.7,65.3-40.7,72.5-46.4,1-.8-.4-.8-.5-2,5.1-.5,8.2-2.2,9.4-2,36.5,29.2,72,59.9,108.6,88.8,1.6,1.3,4.2,3.2,6.4,3Z"/>
      <path class="cls-6" d="M417.1,828.2c0,1.2,1.5,1.2.5,2-7.2,5.7-57.6,30.7-72.5,46.4-18.4-2.5-36.7-4.7-55.3-4.9-1.3-10.4-.8-22.9-1-33.6,42.9-2.8,85.6-5.8,128.3-9.9Z"/>
    </g>
    <g>
      <path class="cls-5" d="M475.4,619c9.5,1,19.1,2.2,28.6,3v35.5c-3.7,5-6.6,11-9.9,16.3-1.4,2.1-3.4,1.5-5.4,1.5-7.3,0-116.5-21.3-140.2-23.7q-24.9-27.6-49.8-55.3c55.7,8.5,120.7,16.9,176.7,22.7Z"/>
      <path class="cls-5" d="M535.6,624.9c-14.6,10.3-21.1,18.6-31.6,32.6v-35.5c10.5.9,21,2.6,31.6,3Z"/>
    </g>
    <path class="cls-1" d="M628.3,568.6c-.9,2.6-1.7,5.5-3,7.9-.5-.2-5.1.1-10.9-1-10.8-2.1-22.6-3.2-33.6-4.9,0-4.1,3.2-10.5,3-13.8,14.9.8,30.7,6.2,44.4,11.8Z"/>
    <path class="cls-1" d="M583.9,556.8c.3,3.3-2.9,9.7-3,13.8-.9-.1-3.1-2.4-6.9,0l-3-1c2.9-6.4,4.7-13,8.9-18.8,2,1,3.9,5.6,3.9,5.9Z"/>
    <path class="cls-6" d="M584.9,605.1c9.5.5,15.8-2.1,15.8,3.9-23.7,1.3-47.2,6-71.1,5.9q1.5-5.9,3-11.8c12.6,1.3,37.1,1.2,52.3,2Z"/>
    <path class="cls-1" d="M466.5,553.8s8.1,2.4,11.8,3.9c2.9,1.2,5.9,2.7,8.9,3.9-6.5,9.2-26.6,23.7-26.6,23.7,0,0-7.2-6.6-10.9-9.9,8.4-10.9,16.8-21.7,16.8-21.7Z"/>
    <polygon class="cls-1" points="620.5 559.7 625.4 576.5 635.4 595.1 653 590.3 666.2 560.7 620.5 559.7"/>
    <polyline class="cls-7" points="642.2 629.8 635.2 632.8 638.2 638.9 646.8 637.7"/>
    <polyline class="cls-7" points="663 588.4 640.2 593.8 642.2 629.8 655 638.7 656.5 644.8 666.2 639.7"/>
    <path class="cls-7" d="M645.6,601.2c-1,.2,1,18,1.5,19.7.3.9,7.1,16.3,7.9,17.8,3.8,7.2,3.4,1.7,4.9-13.8-7.5-5.7-10.6-15.4-14.3-23.7Z"/>
    <path class="cls-4" d="M820.8,254.8l-24.7-67.1-14.3-18.8-135.7-14.8c-14.6,19.8-44.4,59.2-44.4,59.2l-2,3-7.9,17.8-30.6,72.1v2l-52.3,24.7-15.8,7.9-30.6,17.8-2,1-19.7,16.8-74,75-25.7-7.9-82.9-44.4-6.9-2.5s8.5,23.8,16.8,33.1c.4,1.7,1,4.9,1,4.9l34.5,64.2-3,2-4.9,4.9,66.1,8.9,81.9,29.6s15.2,6.8,22.7,9.9l11.8,3.9,8.9,3.9-26.6,23.7-4.9,10.9s-2.8,6.6-3.9,9.9l1.5,3,67.6,11.8s4.9,0,5.9-1c1.7-1.7.9-3,1-4.9h2l3.1-10.5,52.2.6,15.8,3.9,8.9,8.9,3.9,21.7s11.7-.8,12.3-1c.9-.2,1.4-1.9,1.5-2,3-.9,7.9-3.9,7.9-3.9l6.9-3s-2.1-33.8-2-36c0-.4-2.5-1.4-2-3.5-3.2-1.9-.6-3.1-5.9-3.9.5-3-4.7-9-6.9-9.9-.5-.2-5.1.1-10.9-1-10.8-2.1-22.6-3.2-33.6-4.9-.9-.1-3.1-2.4-6.9,0l-3-1c2.9-6.4,4.7-13,8.9-18.8.9-1.2,2.8-2.6,2.8-2.6,0,0-.3-1.8.2-2.3h1s18.2-28.4,28.6-41.5l41.2-44,11.1-17.2,51.9-148.3,69.3,8.2-13.6-49.3,9.4,96.6,20.2-24.7,18.8-62.2v-8.9Z"/>
  </g>
</svg>