<?xml version="1.0" encoding="UTF-8"?>
<svg id="Livello_1" data-name="Livello 1" xmlns="http://www.w3.org/2000/svg" version="1.1" viewBox="0 0 500 500">
  <defs>
    <style>
      .cls-1 {
        fill: #000;
        stroke-width: 0px;
      }
    </style>
  </defs>
  <path class="cls-1" d="M245,478.8c-50.6-.9-98-18.7-138.5-54.6-5.6-4.9-6.6-10.7-2.8-15.3,4.1-4.8,9.8-4.6,15.8.7,21.4,19.1,45.7,33.4,73.4,41.2,67,18.8,127.6,5.9,181.5-38.2,1.9-1.5,3.6-3.3,5.6-4.8,4.6-3.5,10.1-3,13.6,1,3.5,4,3.4,10.3-1.3,13.9-13.1,9.9-25.8,20.4-39.9,28.7-31.9,18.8-66.9,27.1-107.4,27.4Z"/>
  <path class="cls-1" d="M397.3,85.1c-2.5,3.2-4.2,6.5-6.8,8.3-3.7,2.6-7.7,1.2-11.2-1.5-8-6.4-15.8-13.1-24.3-18.8-72.6-48.2-168.4-41.6-233.9,16-1.2,1.1-2.4,2.2-3.7,3.2-4.6,3.5-10.1,3.2-13.6-.8-3.6-4-3.5-10.2,1.1-13.9,10.5-8.4,20.9-17.2,32.3-24.3,36.9-23.1,77.4-33.5,120.8-31.5,50.9,2.3,95.5,20.8,133.4,54.9,2.2,2,3.6,5.1,5.9,8.5Z"/>
  <path class="cls-1" d="M199.9,249.8c.2-26.9,22.1-48.7,48.9-48.6,26.8.1,48.6,22.1,48.4,49-.1,26.9-22.1,48.7-48.9,48.6-26.8-.1-48.6-22.2-48.4-49ZM219.4,249.8c-.1,16.1,12.9,29.4,28.9,29.5,16,.1,29.2-12.9,29.3-29,.1-16.1-12.8-29.4-28.9-29.5-16-.1-29.2,12.9-29.4,29Z"/>
  <path class="cls-1" d="M248.1,421.8c-39.1-.7-73.8-13.7-103.4-39.9-5.5-4.9-6.4-10.3-2.5-14.9,4-4.8,9.8-4.7,15.4.2,54.2,46.7,127.5,46.6,182.1-.2,5.5-4.7,11.1-4.8,15.1-.2,4,4.6,3.3,10.1-2.2,14.9-29.7,26.4-64.5,39.4-104.5,40Z"/>
  <path class="cls-1" d="M250.9,78.4c37.5.6,72.3,13.7,102,40,3.2,2.9,5.3,6.2,4.1,10.7-1,4-3.8,7.2-7.7,7.1-3.5-.1-7.6-1.7-10.3-4-18.1-15.6-38.7-26.5-62.1-31.1-43.9-8.6-83.2,1.5-117.5,30.4-1,.8-1.9,1.8-2.9,2.6-4.8,3.8-10.3,3.5-14-.7-3.7-4.2-3.7-10.1,1.1-13.8,9.2-7.2,18.3-14.7,28.3-20.6,23.6-13.9,49.5-20.2,79-20.5Z"/>
  <path class="cls-1" d="M373.2,220.8c0,21.7,0,42.5,0,63.3,0,1.8,0,3.6,0,5.4-.4,5.3-4.4,9.2-9.4,9.4-4.8.1-9-3.4-9.9-8.4-.3-1.7-.2-3.6-.2-5.4,0-21.1,0-42.3,0-64.3-1.7,0-3.3,0-4.8,0-7,0-14,0-21,0-8.4,0-13.1-3.4-13.2-9.6,0-6.2,4.7-9.9,13-9.9,21.3,0,42.6,0,63.9,0,3.3,0,6.5,0,9.8,0,6.7.2,10.9,4.2,10.8,10-.1,5.7-4.3,9.5-10.7,9.5-9.2,0-18.5,0-28.2,0Z"/>
  <path class="cls-1" d="M249.6,135.5c23.2.1,44.4,8,62.8,23.3,1,.8,2,1.7,2.9,2.6,4,4,4.4,9.6,1,13.6-3.6,4.2-9.1,4.4-14,1-6.8-4.7-13.2-10.3-20.7-13.6-30.1-13.1-58.4-9.2-84.1,11.3-7.2,5.7-12.3,6.3-16.6,1.5-4.3-4.9-2.9-10.8,4.1-16.6,18.5-15.3,39.7-23.1,64.6-23.2Z"/>
  <path class="cls-1" d="M248.5,365.3c-25.2-.8-47.1-9.3-65.9-25.9-3.4-3-5.3-6.9-3.4-10.8,1.4-2.8,4.7-6,7.6-6.5,2.9-.5,7,1.3,9.5,3.4,11.3,9.3,23.8,15.9,38.3,18.3,24.9,4.1,47-2,66.4-18.2,2.4-2,5.9-3.6,9-3.8,4-.2,7,2.6,8.2,6.5,1.2,4,.2,7.7-3.1,10.6-12.9,11.7-27.8,19.7-44.9,23.3-7.1,1.5-14.5,2-21.7,3Z"/>
  <path class="cls-1" d="M134.5,249.6c0-12.2,0-24.4,0-36.6,0-7.2,3.7-11.6,9.6-11.7,5.9,0,9.9,4.4,9.9,11.5,0,24.9,0,49.8,0,74.6,0,7.1-4.1,11.5-9.9,11.4-5.9,0-9.5-4.5-9.6-11.7,0-12.5,0-25,0-37.6Z"/>
</svg>