<?xml version="1.0" encoding="UTF-8"?>
<svg id="Livello_1" data-name="Livello 1" xmlns="http://www.w3.org/2000/svg" version="1.1" viewBox="0 0 500 500">
  <defs>
    <style>
      .cls-1 {
        fill: #000;
        stroke-width: 0px;
      }
    </style>
  </defs>
  <path class="cls-1" d="M235.4,0c9.8,0,19.5,0,29.3,0,1.3.3,2.5.7,3.8.8,39.1,2.8,75.7,13.9,109.1,34.4,64.8,39.7,104.6,96.9,118.6,171.8,1.8,9.4,2.6,18.9,3.9,28.4v29.3c-.4,3.5-.8,7-1.2,10.5-6,53.8-26.5,101.3-62.8,141.5-38.5,42.7-86.2,69.4-143,79.4-9.4,1.7-18.9,2.6-28.4,3.9h-29.3c-1.3-.3-2.5-.7-3.8-.8-39.1-2.8-75.7-13.9-109.1-34.4C57.7,425.1,17.9,367.9,3.9,293,2.1,283.6,1.3,274.1,0,264.6c0-9.8,0-19.5,0-29.3.4-3.5.8-7,1.2-10.5,6-53.8,26.5-101.3,62.8-141.5C102.5,40.6,150.2,13.9,206.9,3.9,216.3,2.2,225.9,1.3,235.4,0ZM249.9,482.4c128,0,232.3-104,232.6-232,.2-128.2-104-232.7-232.3-232.8-128,0-232.3,104-232.6,232-.2,128.2,104,232.7,232.3,232.8Z"/>
  <path class="cls-1" d="M250,342c-50.9,0-92.2-41.5-91.9-92.3.3-50.9,41.3-91.7,92-91.7,50.9,0,92.2,41.5,91.9,92.3-.3,50.9-41.3,91.7-92,91.7ZM249.9,175.6c-41.2,0-74.4,33.4-74.3,74.5,0,41.2,33.4,74.4,74.5,74.3,41.2,0,74.4-33.4,74.3-74.5,0-41.2-33.3-74.4-74.5-74.3Z"/>
  <path class="cls-1" d="M51.8,189.5c2.1-5.9,4.3-13.4,7.3-20.6,14.1-33.9,35.8-62.1,65.1-84.2,5.6-4.2,11.4-8,17.3-11.8,4.9-3.2,10.2-2.2,12.9,2.1,2.6,4.1,1.4,9.1-3.1,12.3-6.3,4.6-13,8.7-19.1,13.5-29.6,23-49.9,52.5-61.7,88.1-.8,2.3-1.5,4.7-2.6,6.8-2.1,3.9-5.7,5.4-9.9,4.2-4.1-1.2-6.4-4.3-6.2-10.4Z"/>
  <path class="cls-1" d="M193,247.4c1.2-31.7,28.7-55.8,59.5-54.5,31.8,1.4,56.1,28.9,54.6,59.9-1.6,31.4-28.8,55.7-59.8,54.2-31.5-1.5-56-28.8-54.3-59.7ZM289.1,250.1c0-21.6-17.2-39.1-38.7-39.3-21.9-.1-39.5,17.2-39.5,39,0,21.6,17.2,39.1,38.7,39.3,21.9.1,39.5-17.2,39.5-39Z"/>
</svg>