<?xml version="1.0" encoding="UTF-8"?>
<svg id="Livello_1" data-name="Livello 1" xmlns="http://www.w3.org/2000/svg" version="1.1" viewBox="0 0 500 500">
  <defs>
    <style>
      .cls-1 {
        fill: #000;
        stroke-width: 0px;
      }
    </style>
  </defs>
  <path class="cls-1" d="M211.2,328h33.2c.8-6.7,1.7-13.4,2.5-20.1.2-1.6.3-3.3.6-4.8,1.1-4.4,4.4-6.7,8.5-6.2,4.1.5,7,3.7,6.6,8.2-.8,8.7-1.8,17.5-3.1,26.2-3.5,23.2-8.4,46.1-17.5,67.8-2.8,6.7-6.4,13.1-10,20.4,4.7-1,9-1.3,13-2.8,12.8-4.6,25.4-9.7,38.2-14.5,2.4-.9,5.4-2.2,7.3-1.5,2.4,1,5,3.6,5.9,6.1,1.3,3.6-1,6.8-4.5,8.2-12.9,5.4-25.5,11.8-38.8,15.5-106.6,29.3-213.4-37.4-234.5-146.1C-1,182.7,68.9,82.2,171.2,65.1c42.6-7.1,82.8-.4,120.9,19.7,1.4.8,2.9,1.5,4.2,2.5,3.3,2.6,4.4,6,2.4,9.9-1.9,3.7-6,5.1-10,3.4-1.3-.6-2.6-1.3-3.9-2-1.3-.6-2.5-1.2-4.2-1.4,1.9,2.1,3.8,4.2,5.7,6.4,3.5,4.2,3.3,8.6-.2,11.7-3.3,2.8-7.6,2.2-11.3-1.2-7.8-7.1-15.5-14.4-23.8-20.9-4.7-3.7-10.5-6.1-16.2-8.1,3,6.6,6.2,13.1,9,19.8,2.3,5.5.7,10.1-3.8,11.8-4.4,1.7-8-.6-10.6-5.9-3.5-7.3-7.2-14.5-11.2-21.6-1.5-2.7-4-4.9-6.9-8.3v247ZM145.2,172.1h-46.6c-7.9,22.5-11.9,45.8-12.6,69.7h53.8c1.8-23.4,3.6-46.4,5.3-69.7ZM139.9,258.1h-53.9c.8,23.1,4.6,45.3,11.6,66.9.8,2.5,2.1,3.1,4.6,3.1,12.8-.1,25.7,0,38.5,0,1.7,0,3.4,0,4.6,0-1.8-23.7-3.6-46.7-5.4-70ZM160.9,172c-1.8,23.3-3.6,46.5-5.4,69.7h39.5v-69.7h-34.1ZM194.9,328.1v-70.1h-38.7c.4,22.9,1.9,45.4,5.2,67.7.1.9,1.9,2.2,2.9,2.2,10.1.2,20.1.1,30.6.1ZM70.3,258.2H31.5c.5,21.2,7.6,48.9,17.1,67,.6,1.1,1.8,2.8,2.8,2.8,10.1.2,20.3.1,30.9.1-7.5-23.2-11-46.2-12-69.9ZM31.4,241.9h38.2c1.4-12,2.4-23.8,4.4-35.5,2-11.6,4.9-22.9,7.5-34.6-9.8,0-19.3-.1-28.9.1-1.3,0-3.3,1.4-3.9,2.6-10.4,21.1-16.1,43.4-17.3,67.4ZM172,84.8c-22.9,5.6-59.6,45.2-66.4,71.1h42.9c4.9-24.5,10.8-48.6,23.5-71.1ZM105.6,344c7.3,26.5,47.8,69.7,66.2,70.5-12.6-22-18.3-46.3-23.3-70.5h-42.8ZM241.9,344.1h-30.7v73.6c19.5-20.7,24.5-47.2,30.7-73.6ZM194.9,156v-73.7c-19.1,20.9-24.5,47.2-30.6,73.7h30.6ZM164.3,343.9c6.2,26.6,11.4,53,30.6,73.6v-73.6h-30.6ZM59.1,156.1c8.9,0,16.8-.2,24.7,0,3.3.1,4.8-1,6.1-4,8.2-19.2,19.1-36.6,33.2-52,.7-.7,1.2-1.6,1.8-2.4-27.2,13.2-48.7,32.5-65.8,58.3ZM124.6,402.2c-15.2-16.8-26.9-35.8-35.9-56.5-.4-.8-1.6-1.8-2.4-1.8-8.8-.1-17.6,0-27.3,0,17.2,25.8,38.6,45.1,65.6,58.4Z"/>
  <path class="cls-1" d="M437.5,195.2c0,9.8,0,19.5,0,29.3,0,7-2.8,9.7-9.8,9.8-19.5,0-39.1,0-58.6,0-7,0-9.7-2.8-9.7-9.8,0-19.5,0-39.1,0-58.6,0-7,2.7-9.7,9.8-9.8,19.5,0,39.1,0,58.6,0,7,0,9.7,2.7,9.8,9.8,0,9.8,0,19.5,0,29.3ZM421.8,172.2h-46.5v46.1h46.5v-46.1Z"/>
  <path class="cls-1" d="M398.9,359.4c9.8,0,19.5,0,29.3,0,6.4,0,9.2,2.9,9.3,9.3,0,19.9,0,39.7,0,59.6,0,6.4-2.9,9.3-9.3,9.3-19.9,0-39.7,0-59.6,0-6.4,0-9.2-2.9-9.3-9.3,0-19.9,0-39.7,0-59.6,0-6.4,2.9-9.2,9.3-9.3,10.1,0,20.2,0,30.3,0ZM421.6,375.3h-46.3v46.3h46.3v-46.3Z"/>
  <path class="cls-1" d="M312.5,109.1c0-7.3,0-14.7,0-22,0-6.1,2.9-9.1,8.9-9.1,14.8,0,29.6,0,44.4,0,6.1,0,9.1,2.9,9.1,8.9,0,14.8,0,29.6,0,44.4,0,6.1-2.9,9.1-8.9,9.1-14.8,0-29.6,0-44.4,0-6.3,0-9.1-3-9.1-9.4,0-7.3,0-14.7,0-22ZM359,124.7v-30.7h-30.7v30.7h30.7Z"/>
  <path class="cls-1" d="M343.4,304.6c-7.3,0-14.7,0-22,0-6.1,0-8.9-3-9-9.1,0-14.8,0-29.6,0-44.4,0-6.1,2.9-8.9,9.1-9,14.8,0,29.6,0,44.4,0,6.1,0,8.9,2.9,9,9.1,0,14.8,0,29.6,0,44.4,0,6.1-3,8.9-9.1,9-7.5,0-15,0-22.5,0ZM328.3,288.7h30.7v-30.7h-30.7v30.7Z"/>
  <path class="cls-1" d="M296.8,390.6c-7.3,0-14.7,0-22,0-6.4,0-9.2-2.9-9.3-9.3,0-14.7,0-29.3,0-44,0-6.4,2.9-9.2,9.3-9.3,14.6,0,29.3,0,43.9,0,6.4,0,9.2,2.9,9.3,9.3,0,14.7,0,29.3,0,44,0,6.4-2.9,9.2-9.3,9.3-7.3,0-14.6,0-22,0ZM281.5,343.9v30.7h30.7v-30.7h-30.7Z"/>
  <path class="cls-1" d="M273.4,156.2c0,5,.1,10.1,0,15.1-.2,5.2-3.1,8.2-8.3,8.3-10.1.1-20.2.1-30.3,0-5.2,0-8.2-3.1-8.2-8.3-.1-10.1-.1-20.2,0-30.3,0-5.2,3.1-8.2,8.3-8.2,10.1-.1,20.2-.1,30.3,0,5.2,0,8.1,3.1,8.3,8.3.1,5,0,10.1,0,15.1ZM257.6,148.6h-15.2v15.1h15.2v-15.1Z"/>
  <path class="cls-1" d="M273.4,210.8c0-5-.1-10.1,0-15.1.2-5.2,3.1-8.1,8.3-8.2,10.1-.1,20.2-.1,30.3,0,5.2,0,8.2,3.1,8.2,8.3.1,10.1.1,20.2,0,30.3,0,5.2-3.1,8.2-8.3,8.2-10.1.1-20.2.1-30.3,0-5.2,0-8.1-3.1-8.2-8.3-.1-5,0-10.1,0-15.1ZM304.3,218.5v-15h-15v15h15Z"/>
  <path class="cls-1" d="M265.6,266c0,4.7,0,9.4,0,14.2-.1,5.8-3,8.8-8.7,8.8-9.8.1-19.5,0-29.3,0-5.8,0-8.8-3-8.8-8.7-.1-9.8,0-19.5,0-29.3,0-5.8,2.9-8.8,8.7-8.8,9.8-.1,19.5,0,29.3,0,5.8,0,8.7,3,8.8,8.7.1,5,0,10.1,0,15.1ZM234.6,273.1h15.1v-15h-15.1v15Z"/>
</svg>