<?xml version="1.0" encoding="utf-8"?>
<!-- Generator: Adobe Illustrator 28.1.0, SVG Export Plug-In . SVG Version: 6.00 Build 0)  -->
<svg version="1.1" id="Livello_1" xmlns="http://www.w3.org/2000/svg" xmlns:xlink="http://www.w3.org/1999/xlink" x="0px" y="0px"
	 viewBox="0 0 500 500" style="enable-background:new 0 0 500 500;" xml:space="preserve">
<g>
	<path d="M19.2,91.2c18.7-2.4,37.4-4.8,56.1-7.1c20.3-2.6,40.7-5,61-7.6c20.5-2.6,41-5.1,61.5-7.7c7.4-0.9,14.8-1.8,22.6-2.8
		c0,56.4,0,112.5,0,169.2c-67,0-134.1,0-201.2,0C19.2,187.2,19.2,139.2,19.2,91.2z"/>
	<path d="M19.2,263.9c67,0,134,0,201.2,0c0,56.4,0,112.6,0,169.2c-8.7-1.1-17.2-2.1-25.8-3.1c-20.6-2.6-41.3-5.2-61.9-7.8
		c-20-2.5-40.1-5-60.1-7.5c-17.8-2.2-35.6-4.6-53.4-6.9C19.2,359.9,19.2,311.9,19.2,263.9z"/>
	<path d="M479.6,235c-76.7,0-153,0-229.6,0c0-57.4,0-114.7,0-172.8c76.3-9.5,152.8-19.1,229.6-28.7
		C479.6,100.7,479.6,167.7,479.6,235z"/>
	<path d="M249.7,436.8c0-57.6,0-114.9,0-172.5c76.5,0,153,0,229.8,0c0,66.8,0,133.7,0,201.2C402.9,456,326.4,446.4,249.7,436.8z"/>
</g>
</svg>
