<svg width="20" height="20" viewBox="0 0 20 20" fill="none" xmlns="http://www.w3.org/2000/svg">
<path d="M18.3327 10H1.66602" stroke="#00D3F2" stroke-width="1.66667" stroke-linecap="round" stroke-linejoin="round"/>
<path d="M4.54102 4.25801L1.66602 9.99967V14.9997C1.66602 15.4417 1.84161 15.8656 2.15417 16.1782C2.46673 16.4907 2.89065 16.6663 3.33268 16.6663H16.666C17.108 16.6663 17.532 16.4907 17.8445 16.1782C18.1571 15.8656 18.3327 15.4417 18.3327 14.9997V9.99967L15.4577 4.25801C15.3197 3.98033 15.107 3.74665 14.8435 3.58324C14.58 3.41983 14.2761 3.33317 13.966 3.33301H6.03268C5.72261 3.33317 5.41874 3.41983 5.15522 3.58324C4.8917 3.74665 4.679 3.98033 4.54102 4.25801Z" stroke="#00D3F2" stroke-width="1.66667" stroke-linecap="round" stroke-linejoin="round"/>
<path d="M5 13.333H5.00833" stroke="#00D3F2" stroke-width="1.66667" stroke-linecap="round" stroke-linejoin="round"/>
<path d="M8.33398 13.333H8.34232" stroke="#00D3F2" stroke-width="1.66667" stroke-linecap="round" stroke-linejoin="round"/>
</svg>
