<svg width="17" height="20" viewBox="0 0 17 20" fill="none" xmlns="http://www.w3.org/2000/svg">
<g clip-path="url(#clip0_13_298)">
<path d="M9.78413 10.5425C9.46002 10.547 9.84542 10.706 10.2685 10.7698C10.3854 10.6805 10.4915 10.5901 10.586 10.5022C10.3224 10.5653 10.0544 10.5666 9.78413 10.5425ZM11.5237 10.1179C11.7168 9.85723 11.8573 9.57161 11.907 9.27646C11.8637 9.48692 11.7471 9.66869 11.6371 9.86046C11.0312 10.2338 11.58 9.63869 11.6368 9.41246C10.9854 10.2152 11.5474 9.89377 11.5237 10.1179ZM12.1659 8.48215C12.205 7.91077 12.0511 8.09138 11.9993 8.30946C12.0595 8.34023 12.1075 8.7123 12.1659 8.48215ZM8.55511 0.671997C8.72805 0.702382 8.92888 0.725689 8.90067 0.766151C9.08979 0.725535 9.13277 0.688074 8.55511 0.671997Z" fill="#D70751"/>
<path d="M8.9007 0.766144L8.77844 0.790759L8.89221 0.78099L8.9007 0.766144Z" fill="#D70751"/>
<path d="M14.2945 8.69883C14.3139 9.21199 14.1413 9.46091 13.9856 9.90168L13.7055 10.0387C13.4762 10.4745 13.7277 10.3154 13.5636 10.6621C13.2056 10.9736 12.4775 11.6368 12.2444 11.6973C12.0745 11.6937 12.3598 11.5008 12.3971 11.4252C11.918 11.7474 12.0126 11.9087 11.28 12.1044L11.2586 12.0578C9.45137 12.8899 6.94133 11.2407 6.9744 8.99037C6.95508 9.13322 6.91956 9.09753 6.87949 9.1553C6.7863 7.99745 7.42572 6.83453 8.50395 6.35968C9.55893 5.84845 10.7953 6.0583 11.551 6.74768C11.1359 6.21537 10.3099 5.65122 9.33092 5.70399C8.37172 5.71883 7.47467 6.31553 7.17523 6.96314C6.68393 7.26607 6.62688 8.1306 6.41278 8.28876C6.12481 10.3613 6.9546 11.2567 8.35836 12.3099C8.5793 12.4558 8.42059 12.4779 8.45053 12.5889C7.98413 12.3751 7.55701 12.0523 7.20588 11.6571C7.39225 11.9242 7.59331 12.1838 7.85323 12.3878C7.41354 12.2418 6.82598 11.3444 6.65454 11.3079C7.41252 12.6367 9.72998 13.6383 10.9435 13.1414C10.382 13.1617 9.66862 13.1527 9.03769 12.9244C8.77283 12.791 8.41242 12.5143 8.47669 12.4626C10.1329 13.0684 11.8438 12.9214 13.2766 11.7968C13.6413 11.5188 14.0395 11.046 14.1545 11.0394C13.9812 11.2946 14.1841 11.1622 14.0509 11.3874C14.4143 10.8138 13.8932 11.1539 14.4264 10.3968L14.6234 10.6624C14.5503 10.1864 15.2274 9.6083 15.1587 8.85537C15.3139 8.62507 15.332 9.10307 15.1671 9.63283C15.3959 9.04514 15.2274 8.95076 15.2862 8.46583C15.3499 8.62876 15.4329 8.80199 15.4758 8.97399C15.3269 8.40614 15.6288 8.0176 15.7035 7.68753C15.6298 7.6556 15.4734 7.9386 15.4376 7.26776C15.4428 6.97637 15.5205 7.11507 15.5504 7.04337C15.4919 7.01053 15.3387 6.78722 15.2455 6.35876C15.3131 6.25814 15.4263 6.61976 15.5182 6.6346C15.459 6.29391 15.3572 6.03422 15.3529 5.77291C15.0842 5.22299 15.2578 5.84622 15.0398 5.53683C14.7538 4.66322 15.2772 5.33399 15.3125 4.93714C15.7462 5.55214 15.9935 6.50537 16.1068 6.90014C16.0202 6.41876 15.8803 5.95245 15.7094 5.5013C15.8412 5.55553 15.4974 4.51091 15.8807 5.20268C15.4714 3.72791 14.1284 2.34983 12.893 1.70322C13.0442 1.8386 13.2351 2.00868 13.1665 2.0353C12.5522 1.67714 12.6602 1.6493 12.5721 1.49799C12.0717 1.29868 12.0388 1.51399 11.7073 1.4983C10.7641 1.00845 10.5823 1.0606 9.71411 0.753604L9.75355 0.934297C9.12868 0.730527 9.02559 1.0116 8.35011 0.934989C8.30902 0.903527 8.56642 0.821219 8.77848 0.791065C8.17427 0.869142 8.20263 0.674528 7.61138 0.812528C7.75713 0.712451 7.91113 0.64622 8.06655 0.561066C7.57383 0.590373 6.89025 0.841758 7.10122 0.613143C6.29704 0.964604 4.86955 1.45745 4.0686 2.19276L4.04338 2.02799C3.67629 2.45937 2.4428 3.3163 2.3445 3.87499L2.24637 3.89737C2.05536 4.21399 1.93177 4.57283 1.78028 4.8986C1.53043 5.3153 1.41406 5.05899 1.44965 5.1243C0.958347 6.0996 0.714304 6.91907 0.503418 7.59114C0.653647 7.81099 0.507032 8.91468 0.563839 9.79791C0.317046 14.1601 3.69098 18.3956 7.37889 19.3733C7.91946 19.5624 8.72325 19.5551 9.40705 19.5747C8.60028 19.3488 8.49602 19.455 7.7103 19.1867C7.14341 18.9253 7.01911 18.6269 6.61761 18.2858L6.77648 18.5607C5.98912 18.2878 6.31849 18.223 5.6779 18.0244L5.84761 17.8074C5.59233 17.7885 5.17158 17.3863 5.05648 17.1635L4.77731 17.1743C4.44181 16.769 4.26306 16.4771 4.2761 16.2508L4.1859 16.4083C4.08368 16.2364 2.95163 14.8884 3.53895 15.2022C3.42981 15.1044 3.28477 15.0432 3.12747 14.7635L3.24705 14.6298C2.96443 14.2738 2.72683 13.8173 2.7449 13.6654C2.89568 13.8648 3.00026 13.902 3.10382 13.9362C2.39015 12.2024 2.35008 13.8407 1.80943 12.1714L1.92383 12.1625C1.83615 12.0331 1.78295 11.8928 1.71247 11.755L1.76221 11.2694C1.24828 10.6877 1.6185 8.79622 1.69252 7.75883C1.74398 7.33691 2.12144 6.88791 2.40862 6.18368L2.23364 6.15414C2.56804 5.58314 4.143 3.86076 4.8723 3.94937C5.2258 3.51483 4.80222 3.94783 4.73308 3.83837C5.5092 3.05199 5.75325 3.28283 6.277 3.14137C6.84193 2.81307 5.79222 3.26937 6.06007 3.01614C7.03648 2.77199 6.75213 2.46107 8.026 2.33707C8.16036 2.41191 7.71415 2.45268 7.60211 2.54983C8.41564 2.16014 10.1768 2.24876 11.3206 2.76607C12.648 3.37345 14.1392 5.16853 14.198 6.85753L14.265 6.87514C14.2311 7.5466 14.3699 8.32299 14.1293 9.03622L14.2943 8.69891" fill="#D70751"/>
<path d="M6.24645 10.9781L6.20104 11.2006C6.41397 11.4839 6.58298 11.7909 6.85499 12.0123C6.65935 11.6382 6.51391 11.4837 6.24645 10.9781ZM6.75002 10.9588C6.63727 10.8367 6.57056 10.6898 6.49584 10.5434C6.56726 10.8007 6.71356 11.0218 6.84973 11.2467L6.75002 10.9588ZM15.6609 9.06262L15.6133 9.17954C15.5261 9.78662 15.3375 10.3873 15.0485 10.9442C15.3675 10.3566 15.5741 9.71385 15.6606 9.06262M8.61916 0.519773C8.83829 0.441158 9.15776 0.476696 9.39026 0.424927C9.08736 0.44985 8.78581 0.464696 8.48794 0.502234L8.61916 0.519773ZM0.925676 4.52493C0.976119 4.9827 0.573912 5.16031 1.01478 4.85854C1.25104 4.33754 0.922455 4.7147 0.925676 4.52493ZM0.407655 6.64323C0.509169 6.33808 0.527555 6.15485 0.566369 5.97823C0.285791 6.32947 0.437276 6.40431 0.407655 6.64323Z" fill="#D70751"/>
</g>
<defs>
<clipPath id="clip0_13_298">
<rect width="16.5" height="20" fill="white"/>
</clipPath>
</defs>
</svg>
