<svg width="20" height="20" viewBox="0 0 20 20" fill="none" xmlns="http://www.w3.org/2000/svg">
<path fill-rule="evenodd" clip-rule="evenodd" d="M6.0342 8.52924L15.157 14.6201C15.5344 14.2271 15.5344 14.2271 15.7757 13.8666C17.8268 10.8028 17.1134 6.41022 13.8751 4.25653C10.6252 2.06674 6.29226 3.08103 4.22689 6.14744C2.25042 9.11866 2.72328 13.4807 6.13655 15.792C9.12135 17.7638 11.9201 16.897 13.6351 15.9452L12.7789 14.4768C10.9304 15.4514 8.76465 15.5675 7.09575 14.4321C4.5293 12.7322 4.02441 9.39275 5.60563 7.05415C7.16136 4.70683 10.3809 3.99118 12.9271 5.67271C15.6075 7.49008 15.4511 10.6478 14.7867 12.061C14.4933 11.8591 14.1998 11.6573 13.9063 11.4554C14.6713 9.47333 13.8931 7.51687 12.3612 6.49132C10.5589 5.2848 7.94185 5.49032 6.4785 7.67104C6.1924 8.10362 6.1924 8.10362 6.0342 8.52924Z" fill="white"/>
<path fill-rule="evenodd" clip-rule="evenodd" d="M9.9777 0.0233154C9.84215 1.37884 9.65238 2.24638 9.11017 2.46327C9.65238 2.40904 9.7066 2.40904 9.9777 2.40904C10.2488 2.40904 10.303 2.40904 10.8452 2.46327C10.303 2.24638 10.1133 1.37884 9.9777 0.0233154Z" fill="white"/>
<path fill-rule="evenodd" clip-rule="evenodd" d="M7.91493 0.238892C8.06257 1.59316 8.05627 2.48118 7.57062 2.80549C8.0899 2.64033 8.14295 2.62912 8.4082 2.57307C8.67345 2.51702 8.7265 2.50581 9.2682 2.44675C8.69287 2.34666 8.32782 1.5371 7.91493 0.238892Z" fill="white"/>
<path fill-rule="evenodd" clip-rule="evenodd" d="M5.97278 0.862427C6.39277 2.15836 6.56721 3.02911 6.15767 3.44541C6.63251 3.17809 6.68217 3.15632 6.93047 3.04749C7.17878 2.93867 7.22844 2.9169 7.74681 2.7489C7.16314 2.76792 6.64107 2.04953 5.97278 0.862427Z" fill="white"/>
<path fill-rule="evenodd" clip-rule="evenodd" d="M4.1701 1.88791C4.84897 3.069 5.19967 3.88487 4.88505 4.37685C5.29435 4.01713 5.33845 3.98557 5.55888 3.82775C5.77932 3.66994 5.82341 3.63838 6.29584 3.36683C5.72872 3.50611 5.0694 2.91119 4.1701 1.88791Z" fill="white"/>
<path fill-rule="evenodd" clip-rule="evenodd" d="M2.62592 3.25568C3.53316 4.27191 4.04416 4.99822 3.83744 5.54439C4.16402 5.10818 4.20068 5.06822 4.38395 4.86845C4.56722 4.66867 4.60387 4.62871 5.01037 4.26582C4.484 4.51875 3.71644 4.07213 2.62592 3.25568Z" fill="white"/>
<path fill-rule="evenodd" clip-rule="evenodd" d="M12.0627 0.240204C11.9151 1.59447 11.9214 2.4825 12.4071 2.8068C11.8878 2.64165 11.8347 2.63044 11.5695 2.57438C11.3042 2.51833 11.2512 2.50712 10.7095 2.44807C11.2848 2.34797 11.6499 1.53842 12.0627 0.240204Z" fill="white"/>
<path fill-rule="evenodd" clip-rule="evenodd" d="M14.0049 0.86377C13.5849 2.1597 13.4104 3.03045 13.82 3.44675C13.3451 3.17943 13.2955 3.15767 13.0472 3.04884C12.7989 2.94001 12.7492 2.91824 12.2308 2.75025C12.8145 2.76926 13.3366 2.05087 14.0049 0.86377Z" fill="white"/>
<path fill-rule="evenodd" clip-rule="evenodd" d="M15.8076 1.88922C15.1288 3.07032 14.7781 3.88618 15.0927 4.37817C14.6834 4.01845 14.6393 3.98688 14.4188 3.82907C14.1984 3.67125 14.1543 3.63969 13.6819 3.36815C14.249 3.50742 14.9083 2.9125 15.8076 1.88922Z" fill="white"/>
<path fill-rule="evenodd" clip-rule="evenodd" d="M17.3517 3.25699C16.4445 4.27322 15.9335 4.99953 16.1402 5.5457C15.8136 5.10949 15.777 5.06953 15.5937 4.86976C15.4104 4.66998 15.3738 4.63002 14.9673 4.26713C15.4936 4.52006 16.2612 4.07345 17.3517 3.25699Z" fill="white"/>
<path fill-rule="evenodd" clip-rule="evenodd" d="M9.99998 19.9767C9.86443 18.6212 9.67466 17.7536 9.13245 17.5367C9.67466 17.591 9.72888 17.591 9.99998 17.591C10.2711 17.591 10.3253 17.591 10.8675 17.5367C10.3253 17.7536 10.1355 18.6212 9.99998 19.9767Z" fill="white"/>
<path fill-rule="evenodd" clip-rule="evenodd" d="M7.93727 19.7611C8.08491 18.4069 8.07861 17.5188 7.59296 17.1945C8.11224 17.3597 8.16529 17.3709 8.43054 17.4269C8.69579 17.483 8.74884 17.4942 9.29054 17.5533C8.7152 17.6534 8.35016 18.4629 7.93727 19.7611Z" fill="white"/>
<path fill-rule="evenodd" clip-rule="evenodd" d="M5.99506 19.1375C6.41505 17.8416 6.58949 16.9709 6.17995 16.5546C6.65479 16.8219 6.70445 16.8436 6.95275 16.9525C7.20105 17.0613 7.25071 17.0831 7.76909 17.2511C7.18542 17.2321 6.66335 17.9504 5.99506 19.1375Z" fill="white"/>
<path fill-rule="evenodd" clip-rule="evenodd" d="M4.19238 18.1121C4.87124 16.931 5.22194 16.1151 4.90733 15.6231C5.31663 15.9829 5.36072 16.0144 5.58116 16.1722C5.8016 16.3301 5.84569 16.3616 6.31812 16.6332C5.75099 16.4939 5.09168 17.0888 4.19238 18.1121Z" fill="white"/>
<path fill-rule="evenodd" clip-rule="evenodd" d="M2.64819 16.7443C3.55544 15.7281 4.06644 15.0018 3.85972 14.4556C4.1863 14.8918 4.22296 14.9318 4.40623 15.1315C4.5895 15.3313 4.62615 15.3713 5.03264 15.7342C4.50628 15.4812 3.73871 15.9279 2.64819 16.7443Z" fill="white"/>
<path fill-rule="evenodd" clip-rule="evenodd" d="M12.085 19.7598C11.9374 18.4055 11.9437 17.5175 12.4293 17.1932C11.9101 17.3584 11.857 17.3696 11.5918 17.4256C11.3265 17.4817 11.2735 17.4929 10.7318 17.5519C11.3071 17.652 11.6721 18.4616 12.085 19.7598Z" fill="white"/>
<path fill-rule="evenodd" clip-rule="evenodd" d="M14.0272 19.1362C13.6072 17.8403 13.4328 16.9696 13.8423 16.5533C13.3675 16.8206 13.3178 16.8423 13.0695 16.9512C12.8212 17.06 12.7715 17.0818 12.2532 17.2498C12.8368 17.2307 13.3589 17.9491 14.0272 19.1362Z" fill="white"/>
<path fill-rule="evenodd" clip-rule="evenodd" d="M15.8299 18.1108C15.151 16.9297 14.8003 16.1138 15.115 15.6218C14.7057 15.9815 14.6616 16.0131 14.4411 16.1709C14.2207 16.3287 14.1766 16.3603 13.7042 16.6318C14.2713 16.4926 14.9306 17.0875 15.8299 18.1108Z" fill="white"/>
<path fill-rule="evenodd" clip-rule="evenodd" d="M17.3741 16.743C16.4668 15.7268 15.9558 15.0005 16.1625 14.4543C15.836 14.8905 15.7993 14.9305 15.616 15.1302C15.4328 15.33 15.3961 15.37 14.9896 15.7329C15.516 15.4799 16.2836 15.9265 17.3741 16.743Z" fill="white"/>
</svg>
