<svg width="14" height="16" viewBox="0 0 14 16" fill="none" xmlns="http://www.w3.org/2000/svg">
<mask id="mask0_1_29" style="mask-type:luminance" maskUnits="userSpaceOnUse" x="0" y="0" width="14" height="16">
<path fill-rule="evenodd" clip-rule="evenodd" d="M0 0H13.5V16H0V0Z" fill="white"/>
</mask>
<g mask="url(#mask0_1_29)">
<path fill-rule="evenodd" clip-rule="evenodd" d="M12.1997 11.1503C12.1997 11.2524 12.1346 11.3542 12.0696 11.3877L7.87315 13.8976C7.74305 13.9654 7.58039 13.9311 7.51534 13.7958C7.48279 13.7616 7.48279 13.6937 7.48279 13.6598V8.64121C7.48279 8.53947 7.54789 8.43739 7.61294 8.40348L11.8093 5.86008C11.9394 5.79226 12.1021 5.82617 12.1672 5.96182C12.1997 5.99573 12.1997 6.06355 12.1997 6.09782V11.1503ZM6.01774 13.6942C6.01774 13.8638 5.88763 13.9659 5.75753 13.9659C5.72498 13.9659 5.65992 13.9659 5.62737 13.9316L1.43099 11.4225C1.3334 11.3882 1.30087 11.2865 1.30087 11.1851V6.09831C1.30087 5.92875 1.43099 5.82667 1.56111 5.82667C1.59364 5.82667 1.6587 5.82667 1.69123 5.86058L5.88763 8.37041C5.98524 8.40398 6.01774 8.50571 6.01774 8.60745V13.6942ZM2.40758 4.06325L6.60398 1.51985C6.70158 1.4856 6.79918 1.4856 6.86424 1.51985L11.0606 4.06325C11.1907 4.13073 11.2233 4.30029 11.1582 4.43594L11.0606 4.53768L6.86424 7.08106C6.76663 7.11532 6.66903 7.11532 6.60398 7.08106L2.40758 4.53768C2.27746 4.46985 2.24493 4.30029 2.30999 4.16465L2.40758 4.06325ZM13.5 4.33423C13.5 4.16467 13.435 3.99511 13.3374 3.89371H13.3049L13.2723 3.85946L13.2398 3.82555H13.2073L7.02656 0.0952361L6.99401 0.0613242C6.83135 -0.0404118 6.60364 -0.00616077 6.44099 0.0952361L0.260242 3.79164H0.227712L0.195182 3.82555L0.162651 3.85946L0.130121 3.89371C0.0325303 3.99511 0 4.13076 0 4.30032V4.33423V11.7613C0 11.9644 0.130121 12.1679 0.292772 12.2699L6.47354 15.966C6.47354 15.966 6.50604 15.966 6.50604 16.0003H6.53859H6.57109H6.60364H6.63619H6.6687H6.7988H6.83135H6.8639H6.8964H6.92896H6.96146C6.96146 16.0003 6.99401 16.0003 6.99401 15.966L13.1747 12.2699C13.3699 12.1679 13.4675 11.9644 13.4675 11.7613L13.5 4.33423Z" fill="#9FEF00"/>
</g>
</svg>
