<svg width="32" height="32" viewBox="0 0 32 32" fill="none" xmlns="http://www.w3.org/2000/svg">
<path d="M17.1063 2.90649C16.7589 2.74802 16.3815 2.66602 15.9996 2.66602C15.6178 2.66602 15.2404 2.74802 14.893 2.90649L3.46629 8.10649C3.22969 8.21082 3.02853 8.38169 2.88731 8.5983C2.74609 8.81491 2.6709 9.06791 2.6709 9.32649C2.6709 9.58507 2.74609 9.83807 2.88731 10.0547C3.02853 10.2713 3.22969 10.4422 3.46629 10.5465L14.9063 15.7598C15.2537 15.9183 15.6311 16.0003 16.013 16.0003C16.3948 16.0003 16.7722 15.9183 17.1196 15.7598L28.5596 10.5598C28.7962 10.4555 28.9974 10.2846 29.1386 10.068C29.2798 9.85141 29.355 9.59841 29.355 9.33982C29.355 9.08124 29.2798 8.82824 29.1386 8.61163C28.9974 8.39502 28.7962 8.22415 28.5596 8.11983L17.1063 2.90649Z" stroke="#00FFF0" stroke-width="2.66667" stroke-linecap="round" stroke-linejoin="round"/>
<path d="M2.667 16C2.66637 16.255 2.73888 16.5049 2.87595 16.7199C3.01302 16.935 3.20889 17.1062 3.44033 17.2133L14.907 22.4267C15.2526 22.5832 15.6276 22.6641 16.007 22.6641C16.3864 22.6641 16.7614 22.5832 17.107 22.4267L28.547 17.2267C28.783 17.1206 28.9831 16.9481 29.1227 16.7303C29.2624 16.5125 29.3357 16.2587 29.3337 16" stroke="#00FFF0" stroke-width="2.66667" stroke-linecap="round" stroke-linejoin="round"/>
<path d="M2.667 22.667C2.66637 22.922 2.73888 23.1719 2.87595 23.3869C3.01302 23.602 3.20889 23.7732 3.44033 23.8803L14.907 29.0937C15.2526 29.2502 15.6276 29.3311 16.007 29.3311C16.3864 29.3311 16.7614 29.2502 17.107 29.0937L28.547 23.8937C28.783 23.7876 28.9831 23.6151 29.1227 23.3973C29.2624 23.1795 29.3357 22.9257 29.3337 22.667" stroke="#00FFF0" stroke-width="2.66667" stroke-linecap="round" stroke-linejoin="round"/>
</svg>
