<svg width="20" height="20" viewBox="0 0 20 20" fill="none" xmlns="http://www.w3.org/2000/svg">
<g clip-path="url(#clip0_3957_733)">
<path d="M10 12.5L13.3333 15.8333" stroke="#00FFF0" stroke-width="1.66667" stroke-linecap="round" stroke-linejoin="round"/>
<path d="M1.96008 8.87284C1.77179 9.06115 1.66602 9.31655 1.66602 9.58284C1.66602 9.84914 1.77179 10.1045 1.96008 10.2928L3.87341 12.2062C4.06172 12.3945 4.31711 12.5002 4.58341 12.5002C4.8497 12.5002 5.1051 12.3945 5.29341 12.2062L10.3176 7.18201C10.4817 7.01786 10.6766 6.88764 10.8911 6.7988C11.1056 6.70997 11.3354 6.66424 11.5676 6.66424C11.7997 6.66424 12.0296 6.70997 12.2441 6.7988C12.4585 6.88764 12.6534 7.01786 12.8176 7.18201C12.9817 7.34616 13.1119 7.54104 13.2008 7.75551C13.2896 7.96999 13.3353 8.19986 13.3353 8.43201C13.3353 8.66415 13.2896 8.89403 13.2008 9.1085C13.1119 9.32298 12.9817 9.51786 12.8176 9.68201L7.79341 14.7062C7.60512 14.8945 7.49935 15.1499 7.49935 15.4162C7.49935 15.6825 7.60512 15.9379 7.79341 16.1262L9.70674 18.0395C9.89506 18.2278 10.1504 18.3336 10.4167 18.3336C10.683 18.3336 10.9384 18.2278 11.1267 18.0395L16.4309 12.7337C17.6464 11.518 18.3291 9.86925 18.329 8.15017C18.3288 6.43108 17.6458 4.78247 16.4301 3.56701C15.8281 2.96517 15.1135 2.48779 14.3271 2.16212C13.5407 1.83645 12.6978 1.66887 11.8466 1.66895C10.1275 1.6691 8.47887 2.35215 7.26341 3.56784L1.96008 8.87284Z" stroke="#00FFF0" stroke-width="1.66667" stroke-linecap="round" stroke-linejoin="round"/>
<path d="M4.16699 6.66699L7.50033 10.0003" stroke="#00FFF0" stroke-width="1.66667" stroke-linecap="round" stroke-linejoin="round"/>
</g>
<defs>
<clipPath id="clip0_3957_733">
<rect width="20" height="20" fill="white"/>
</clipPath>
</defs>
</svg>
