<svg width="16" height="16" viewBox="0 0 16 16" fill="none" xmlns="http://www.w3.org/2000/svg">
<path d="M3.33301 3.33373C3.33294 3.09912 3.39477 2.86865 3.51226 2.66559C3.62976 2.46252 3.79875 2.29406 4.00218 2.17719C4.2056 2.06033 4.43626 1.99921 4.67087 2.00001C4.90547 2.0008 5.13571 2.06349 5.33834 2.18173L13.3363 6.84706C13.5382 6.96418 13.7058 7.13223 13.8223 7.3344C13.9389 7.53657 14.0003 7.76579 14.0005 7.99915C14.0007 8.23251 13.9397 8.46184 13.8235 8.66422C13.7073 8.86659 13.54 9.03493 13.3383 9.15239L5.33834 13.8191C5.13571 13.9373 4.90547 14 4.67087 14.0008C4.43626 14.0016 4.2056 13.9405 4.00218 13.8236C3.79875 13.7067 3.62976 13.5383 3.51226 13.3352C3.39477 13.1321 3.33294 12.9017 3.33301 12.6671V3.33373Z" stroke="#00FFF0" stroke-width="1.33333" stroke-linecap="round" stroke-linejoin="round"/>
</svg>
