<svg width="20" height="20" viewBox="0 0 20 20" fill="none" xmlns="http://www.w3.org/2000/svg">
  <g clip-path="url(#clip0_3957_3598)">
    <path d="M10.692 1.81631C10.4749 1.71727 10.239 1.66602 10.0004 1.66602C9.76172 1.66602 9.52585 1.71727 9.30871 1.81631L2.16704 5.06631C2.01917 5.13152 1.89344 5.23831 1.80518 5.37369C1.71692 5.50907 1.66992 5.6672 1.66992 5.82881C1.66992 5.99043 1.71692 6.14855 1.80518 6.28393C1.89344 6.41931 2.01917 6.52611 2.16704 6.59131L9.31704 9.84965C9.53418 9.94869 9.77005 9.99994 10.0087 9.99994C10.2474 9.99994 10.4832 9.94869 10.7004 9.84965L17.8504 6.59965C17.9983 6.53444 18.124 6.42765 18.2122 6.29227C18.3005 6.15688 18.3475 5.99876 18.3475 5.83715C18.3475 5.67553 18.3005 5.51741 18.2122 5.38203C18.124 5.24665 17.9983 5.13985 17.8504 5.07465L10.692 1.81631Z" stroke="#00D3F2" stroke-width="1.66667" stroke-linecap="round" stroke-linejoin="round"/>
    <path d="M1.66602 10C1.66562 10.1594 1.71095 10.3155 1.79662 10.45C1.88228 10.5844 2.0047 10.6914 2.14935 10.7583L9.31602 14.0167C9.53202 14.1145 9.7664 14.1651 10.0035 14.1651C10.2406 14.1651 10.475 14.1145 10.691 14.0167L17.841 10.7667C17.9885 10.7004 18.1136 10.5926 18.2009 10.4564C18.2882 10.3203 18.334 10.1617 18.3327 10" stroke="#00D3F2" stroke-width="1.66667" stroke-linecap="round" stroke-linejoin="round"/>
    <path d="M1.66602 14.167C1.66562 14.3264 1.71095 14.4825 1.79662 14.617C1.88228 14.7514 2.0047 14.8584 2.14935 14.9253L9.31602 18.1837C9.53202 18.2815 9.7664 18.3321 10.0035 18.3321C10.2406 18.3321 10.475 18.2815 10.691 18.1837L17.841 14.9337C17.9885 14.8674 18.1136 14.7596 18.2009 14.6234C18.2882 14.4873 18.334 14.3287 18.3327 14.167" stroke="#00D3F2" stroke-width="1.66667" stroke-linecap="round" stroke-linejoin="round"/>
  </g>
</svg>
