<svg width="56" height="56" viewBox="0 0 56 56" fill="none" xmlns="http://www.w3.org/2000/svg">
<path d="M0 14C0 6.26801 6.26801 0 14 0H41.9983C49.7303 0 55.9983 6.26801 55.9983 14V41.9983C55.9983 49.7303 49.7303 55.9983 41.9983 55.9983H14C6.26801 55.9983 0 49.7303 0 41.9983V14Z" fill="url(#paint0_linear_3748_935)"/>
<path d="M1.99609 15.9966C1.99609 8.26459 8.26411 1.99658 15.9961 1.99658H40.0013C47.7333 1.99658 54.0013 8.2646 54.0013 15.9966V40.0018C54.0013 47.7338 47.7333 54.0018 40.0013 54.0018H15.9961C8.2641 54.0018 1.99609 47.7338 1.99609 40.0018V15.9966Z" fill="#0A0A1F"/>
<path d="M27.998 37.3308V26.8328" stroke="white" stroke-width="2.3329" stroke-linecap="round" stroke-linejoin="round"/>
<path d="M30.3316 22.1667C31.569 22.1667 32.7558 22.6583 33.6308 23.5333C34.5058 24.4083 34.9974 25.5951 34.9974 26.8325V30.3319C34.9974 32.1881 34.26 33.9682 32.9475 35.2807C31.635 36.5932 29.8549 37.3306 27.9987 37.3306C26.1425 37.3306 24.3624 36.5932 23.0499 35.2807C21.7374 33.9682 21 32.1881 21 30.3319V26.8325C21 25.5951 21.4916 24.4083 22.3666 23.5333C23.2416 22.6583 24.4284 22.1667 25.6658 22.1667H30.3316Z" stroke="white" stroke-width="2.3329" stroke-linecap="round" stroke-linejoin="round"/>
<path d="M30.4717 18.5276L32.6646 16.3347" stroke="white" stroke-width="2.3329" stroke-linecap="round" stroke-linejoin="round"/>
<path d="M38.4969 38.4971C38.4983 37.2971 38.0372 36.1427 37.2096 35.2738C36.382 34.4049 35.2514 33.8883 34.0527 33.8313" stroke="white" stroke-width="2.3329" stroke-linecap="round" stroke-linejoin="round"/>
<path d="M38.4964 19.834C38.495 20.9796 38.0723 22.0847 37.3086 22.9387C36.545 23.7927 35.4938 24.3359 34.3555 24.4648" stroke="white" stroke-width="2.3329" stroke-linecap="round" stroke-linejoin="round"/>
<path d="M39.6629 29.1655H34.9971" stroke="white" stroke-width="2.3329" stroke-linecap="round" stroke-linejoin="round"/>
<path d="M17.5 38.4971C17.4986 37.2971 17.9597 36.1427 18.7873 35.2738C19.615 34.4049 20.7455 33.8883 21.9442 33.8313" stroke="white" stroke-width="2.3329" stroke-linecap="round" stroke-linejoin="round"/>
<path d="M17.5 19.834C17.5013 20.9796 17.9241 22.0847 18.6877 22.9387C19.4514 23.7927 20.5025 24.3359 21.6409 24.4648" stroke="white" stroke-width="2.3329" stroke-linecap="round" stroke-linejoin="round"/>
<path d="M20.9998 29.1655H16.334" stroke="white" stroke-width="2.3329" stroke-linecap="round" stroke-linejoin="round"/>
<path d="M23.333 16.3347L25.5259 18.5276" stroke="white" stroke-width="2.3329" stroke-linecap="round" stroke-linejoin="round"/>
<path d="M24.499 22.3184V21.0003C24.499 20.0722 24.8677 19.1822 25.524 18.5259C26.1802 17.8697 27.0703 17.501 27.9984 17.501C28.9265 17.501 29.8165 17.8697 30.4728 18.5259C31.129 19.1822 31.4977 20.0722 31.4977 21.0003V22.3184" stroke="white" stroke-width="2.3329" stroke-linecap="round" stroke-linejoin="round"/>
<defs>
<linearGradient id="paint0_linear_3748_935" x1="0" y1="0" x2="55.9983" y2="55.9983" gradientUnits="userSpaceOnUse">
<stop stop-color="#F0B100"/>
<stop offset="1" stop-color="#FF6900"/>
</linearGradient>
</defs>
</svg>
