<svg width="56" height="56" viewBox="0 0 56 56" fill="none" xmlns="http://www.w3.org/2000/svg">
<path d="M0 14C0 6.26801 6.26801 0 14 0H41.9983C49.7303 0 55.9983 6.26801 55.9983 14V41.9983C55.9983 49.7303 49.7303 55.9983 41.9983 55.9983H14C6.26801 55.9983 0 49.7303 0 41.9983V14Z" fill="url(#paint0_linear_3765_744)"/>
<path d="M1.99609 15.9966C1.99609 8.26459 8.26411 1.99658 15.9961 1.99658H40.0013C47.7333 1.99658 54.0013 8.2646 54.0013 15.9966V40.0018C54.0013 47.7338 47.7333 54.0018 40.0013 54.0018H15.9961C8.2641 54.0018 1.99609 47.7338 1.99609 40.0018V15.9966Z" fill="#0A0A1F"/>
<path d="M28 16.3346V39.6636" stroke="white" stroke-width="2.3329" stroke-linecap="round" stroke-linejoin="round"/>
<path d="M33.8309 19.834H25.0826C23.9998 19.834 22.9614 20.2641 22.1958 21.0297C21.4301 21.7954 21 22.8338 21 23.9166C21 24.9993 21.4301 26.0377 22.1958 26.8034C22.9614 27.569 23.9998 27.9991 25.0826 27.9991H30.9148C31.9976 27.9991 33.036 28.4293 33.8016 29.1949C34.5673 29.9605 34.9974 30.9989 34.9974 32.0817C34.9974 33.1645 34.5673 34.2029 33.8016 34.9685C33.036 35.7342 31.9976 36.1643 30.9148 36.1643H21" stroke="white" stroke-width="2.3329" stroke-linecap="round" stroke-linejoin="round"/>
<defs>
<linearGradient id="paint0_linear_3765_744" x1="0" y1="0" x2="55.9983" y2="55.9983" gradientUnits="userSpaceOnUse">
<stop stop-color="#F6339A"/>
<stop offset="1" stop-color="#FF2056"/>
</linearGradient>
</defs>
</svg>
