<svg width="60" height="60" viewBox="0 0 60 60" fill="none" xmlns="http://www.w3.org/2000/svg">
<path d="M29.9995 54.18L39.667 24.4294H20.332L29.9995 54.18Z" fill="#E24329"/>
<path d="M29.9995 54.18L20.332 24.4294H6.78516L29.9995 54.18Z" fill="#FC6D26"/>
<path d="M6.78593 24.4294L3.84781 33.4706C3.7173 33.8725 3.7174 34.3054 3.84809 34.7073C3.97878 35.1091 4.23335 35.4593 4.57531 35.7075L30.0003 54.1875L6.78593 24.4294Z" fill="#FCA326"/>
<path d="M6.78516 24.4294H20.332L14.5102 6.5119C14.4445 6.3113 14.3171 6.13659 14.1462 6.01272C13.9753 5.88884 13.7697 5.82214 13.5586 5.82214C13.3475 5.82214 13.1419 5.88884 12.971 6.01272C12.8001 6.13659 12.6727 6.3113 12.607 6.5119L6.78516 24.4294Z" fill="#E24329"/>
<path d="M30 54.18L39.6675 24.4294H53.2144L30 54.18Z" fill="#FC6D26"/>
<path d="M53.2144 24.4294L56.1525 33.4706C56.283 33.8725 56.2829 34.3054 56.1522 34.7073C56.0215 35.1091 55.767 35.4593 55.425 35.7075L30 54.1875L53.2144 24.4294Z" fill="#FCA326"/>
<path d="M53.2148 24.4294H39.668L45.4898 6.51C45.5555 6.30941 45.6829 6.1347 45.8538 6.01083C46.0247 5.88695 46.2303 5.82025 46.4414 5.82025C46.6525 5.82025 46.8581 5.88695 47.029 6.01083C47.1999 6.1347 47.3273 6.30941 47.393 6.51L53.2148 24.4294Z" fill="#E24329"/>
</svg>
