<?xml version="1.0" encoding="UTF-8"?>
<svg id="Livello_1" xmlns="http://www.w3.org/2000/svg" xmlns:xlink="http://www.w3.org/1999/xlink" version="1.1" viewBox="0 0 250 250">
  <!-- Generator: Adobe Illustrator 29.0.0, SVG Export Plug-In . SVG Version: 2.1.0 Build 186)  -->
  <defs>
    <style>
      .st0 {
        fill: none;
      }

      .st1 {
        fill: url(#Sfumatura_senza_nome_16);
      }

      .st2 {
        clip-path: url(#clippath-11);
      }

      .st3 {
        clip-path: url(#clippath-16);
      }

      .st4 {
        clip-path: url(#clippath-10);
      }

      .st5 {
        clip-path: url(#clippath-15);
      }

      .st6 {
        clip-path: url(#clippath-13);
      }

      .st7 {
        clip-path: url(#clippath-14);
      }

      .st8 {
        clip-path: url(#clippath-12);
      }

      .st9 {
        clip-path: url(#clippath-1);
      }

      .st10 {
        clip-path: url(#clippath-3);
      }

      .st11 {
        clip-path: url(#clippath-4);
      }

      .st12 {
        clip-path: url(#clippath-2);
      }

      .st13 {
        clip-path: url(#clippath-7);
      }

      .st14 {
        clip-path: url(#clippath-6);
      }

      .st15 {
        clip-path: url(#clippath-9);
      }

      .st16 {
        clip-path: url(#clippath-8);
      }

      .st17 {
        clip-path: url(#clippath-5);
      }

      .st18 {
        fill: url(#Sfumatura_senza_nome_1615);
      }

      .st19 {
        fill: url(#Sfumatura_senza_nome_1614);
      }

      .st20 {
        fill: url(#Sfumatura_senza_nome_1613);
      }

      .st21 {
        fill: url(#Sfumatura_senza_nome_1612);
      }

      .st22 {
        fill: url(#Sfumatura_senza_nome_1611);
      }

      .st23 {
        fill: url(#Sfumatura_senza_nome_1610);
      }

      .st24 {
        clip-path: url(#clippath);
      }

      .st25 {
        fill: url(#Sfumatura_senza_nome_168);
      }

      .st26 {
        fill: url(#Sfumatura_senza_nome_167);
      }

      .st27 {
        fill: url(#Sfumatura_senza_nome_169);
      }

      .st28 {
        fill: url(#Sfumatura_senza_nome_164);
      }

      .st29 {
        fill: url(#Sfumatura_senza_nome_163);
      }

      .st30 {
        fill: url(#Sfumatura_senza_nome_166);
      }

      .st31 {
        fill: url(#Sfumatura_senza_nome_165);
      }

      .st32 {
        fill: url(#Sfumatura_senza_nome_162);
      }

      .st33 {
        fill: url(#Sfumatura_senza_nome_161);
      }
    </style>
    <clipPath id="clippath">
      <rect class="st0" x="-2.84" width="255.68" height="250"/>
    </clipPath>
    <clipPath id="clippath-1">
      <path class="st0" d="M179.8,60.92c-2,1.07-2.76,3.56-1.69,5.56,4.71,8.84,7.2,18.84,7.2,28.92,0,6.71-1.07,13.31-3.18,19.6l-.54,1.6,11.22,22.86c-14.99,23.04-40.14,36.72-67.72,36.72-2.27,0-4.11,1.84-4.11,4.11s1.84,4.11,4.11,4.11c31.21,0,59.59-15.9,75.93-42.54l1.18-1.93-11.75-23.95c2.05-6.65,3.09-13.56,3.09-20.59,0-11.43-2.82-22.77-8.16-32.79-.74-1.39-2.16-2.18-3.63-2.18-.65,0-1.31.16-1.93.48"/>
    </clipPath>
    <linearGradient id="Sfumatura_senza_nome_16" data-name="Sfumatura senza nome 16" x1="-.6" y1="-.77" x2=".21" y2="-.77" gradientTransform="translate(211.64 -85.15) scale(270.56 -270.56)" gradientUnits="userSpaceOnUse">
      <stop offset="0" stop-color="#a73e3b"/>
      <stop offset=".2" stop-color="#a73e3b"/>
      <stop offset=".8" stop-color="#dfaf5e"/>
      <stop offset="1" stop-color="#dfaf5e"/>
    </linearGradient>
    <clipPath id="clippath-2">
      <path class="st0" d="M136.65,52.55c-.73,2.15.42,4.48,2.57,5.21,16.12,5.47,26.96,20.59,26.96,37.63,0,13.35-6.65,25.73-17.78,33.12-1.89,1.26-2.41,3.81-1.15,5.7.79,1.19,2.1,1.84,3.43,1.84.78,0,1.57-.22,2.27-.69,13.44-8.92,21.46-23.87,21.46-39.97,0-20.56-13.08-38.82-32.54-45.42-.44-.15-.88-.22-1.32-.22-1.71,0-3.31,1.08-3.9,2.79"/>
    </clipPath>
    <linearGradient id="Sfumatura_senza_nome_161" data-name="Sfumatura senza nome 16" x1="-.6" y1="-.83" x2=".21" y2="-.83" gradientTransform="translate(194.29 -130.86) scale(270.56 -270.56)" xlink:href="#Sfumatura_senza_nome_16"/>
    <clipPath id="clippath-3">
      <path class="st0" d="M100.96,11.07l-1.79.53-13.82,24.17c-8.51,5.68-15.6,12.94-21.08,21.62-10.23,16.18-13.49,35.23-9.2,53.65,4.29,18.42,15.64,34,31.93,43.87,4.46,2.7,9.21,4.91,14.13,6.58l2.97,1.01,12.6-14.88c3.85.25,11.34.32,18.19-1.97,2.39-.8,3.69-3.35,2.91-5.69-.78-2.34-3.35-3.6-5.74-2.8-6.25,2.09-14.12,1.68-16.62,1.34l-2.51-.34-11.67,13.78c-3.26-1.29-6.42-2.86-9.43-4.68-29.39-17.8-38.31-56.02-19.86-85.2,4.97-7.86,11.44-14.4,19.24-19.43l.94-.61,13.07-22.86c19.32-5.22,39.55-3.17,57.17,5.85,2.22,1.14,4.97.27,6.16-1.93,1.13-2.1.41-4.67-1.59-5.88-.09-.06-.19-.11-.28-.16-12.55-6.42-26.28-9.68-40.17-9.68-8.53,0-17.13,1.23-25.55,3.71"/>
    </clipPath>
    <linearGradient id="Sfumatura_senza_nome_162" data-name="Sfumatura senza nome 16" x1="-.6" y1="-.84" x2=".21" y2="-.84" gradientTransform="translate(182.42 -141.4) scale(270.56 -270.56)" xlink:href="#Sfumatura_senza_nome_16"/>
    <clipPath id="clippath-4">
      <path class="st0" d="M114.67,44.18c-14.23,3-26.3,11.34-33.96,23.47-15.39,24.34-7.73,56.37,17.08,71.4,2.13,1.29,4.93.64,6.25-1.45,1.32-2.09.67-4.83-1.46-6.12-20.56-12.45-26.9-38.99-14.15-59.16,6.36-10.05,16.35-16.96,28.15-19.45,2.45-.52,4.01-2.88,3.49-5.28-.27-1.23-1.03-2.23-2.05-2.85-.7-.42-1.52-.66-2.38-.66-.32,0-.64.03-.96.1"/>
    </clipPath>
    <linearGradient id="Sfumatura_senza_nome_163" data-name="Sfumatura senza nome 16" x1="-.6" y1="-.8" x2=".21" y2="-.8" gradientTransform="translate(183.57 -125.47) scale(270.56 -270.56)" xlink:href="#Sfumatura_senza_nome_16"/>
    <clipPath id="clippath-5">
      <path class="st0" d="M164.69,149.7c-1.33-.81-1.75-2.53-.91-3.82.81-1.31,2.58-1.7,3.88-.91,1.33.81,1.74,2.51.91,3.82-.53.85-1.46,1.32-2.41,1.32-.5,0-1.02-.13-1.48-.41M156.07,141.21c-1.58,2.47-2.08,5.3-1.64,7.97-10.9,5.71-21.95,8.14-34.24,6.98-2.49-.23-4.72,1.56-4.96,4.01-.25,2.45,1.58,4.61,4.07,4.86,14.25,1.33,27.31-1.56,39.89-8.26.23.17.46.33.73.5,5.57,3.36,12.92,1.66,16.39-3.8,3.45-5.48,1.72-12.67-3.84-16.05-1.94-1.18-4.1-1.74-6.24-1.74-4,0-7.9,1.97-10.15,5.54"/>
    </clipPath>
    <linearGradient id="Sfumatura_senza_nome_164" data-name="Sfumatura senza nome 16" x1="-.6" y1="-.75" x2=".21" y2="-.75" gradientTransform="translate(225.07 -51.52) scale(270.56 -270.56)" xlink:href="#Sfumatura_senza_nome_16"/>
    <clipPath id="clippath-6">
      <path class="st0" d="M69.54,27.36c-1.43-.87-1.87-2.72-.98-4.13.87-1.41,2.76-1.85,4.19-.98,1.43.87,1.89,2.72,1,4.13-.58.92-1.59,1.43-2.61,1.43-.55,0-1.1-.15-1.6-.45M60.83,18.55c-2.08,3.32-2.31,7.23-.96,10.59-5.32,5.11-9.99,10.84-13.94,17.09-13.06,20.66-17.13,45.05-11.49,68.68,5.65,23.63,20.35,43.67,41.41,56.43,23.16,14.02,51.34,17.36,77.32,9.14,2.37-.77,3.7-3.28,2.93-5.61-.77-2.33-3.32-3.61-5.71-2.87-23.43,7.43-48.85,4.42-69.74-8.22-39.23-23.76-51.34-74.39-27-112.89,3.53-5.59,7.7-10.69,12.42-15.28,5.48,2.47,12.11.6,15.37-4.55,3.53-5.59,1.76-12.92-3.91-16.36-1.98-1.2-4.18-1.77-6.35-1.77-4.07,0-8.06,2-10.36,5.63"/>
    </clipPath>
    <linearGradient id="Sfumatura_senza_nome_165" data-name="Sfumatura senza nome 16" x1="-.6" y1="-.8" x2=".21" y2="-.8" gradientTransform="translate(188.3 -115.15) scale(270.56 -270.56)" xlink:href="#Sfumatura_senza_nome_16"/>
    <clipPath id="clippath-7">
      <path class="st0" d="M164.96,46.22c-1.16-.71-1.52-2.2-.79-3.34.73-1.14,2.24-1.5,3.41-.79,1.16.71,1.54,2.2.81,3.34-.47.74-1.29,1.15-2.12,1.15-.45,0-.9-.12-1.3-.36M108.62,28c-2.43.58-3.95,2.99-3.36,5.38.58,2.37,3.03,3.84,5.48,3.26,15.1-3.57,30.65-1.47,44.11,5.9-.64,4.32,1.31,8.81,5.34,11.24,5.42,3.28,12.54,1.62,15.91-3.68,3.36-5.32,1.68-12.32-3.72-15.6-4.07-2.45-9.12-2.14-12.79.44-10.62-5.88-22.38-8.89-34.33-8.89-5.54,0-11.11.65-16.63,1.95"/>
    </clipPath>
    <linearGradient id="Sfumatura_senza_nome_166" data-name="Sfumatura senza nome 16" x1="-.6" y1="-.85" x2=".21" y2="-.85" gradientTransform="translate(163.77 -189.27) scale(270.56 -270.56)" xlink:href="#Sfumatura_senza_nome_16"/>
    <clipPath id="clippath-8">
      <path class="st0" d="M100.52,75.33c-6.52,7.81-8.68,18.09-5.81,28.02,1.43,4.94,4.17,9.47,7.89,13.04,5.59,5.38,12.69,8.33,20.08,8.56,3.14.1,6.33-.29,9.49-1.2,4.82-1.37,9.22-3.99,12.75-7.5.02-.02.04-.04.06-.06,1.6-1.6,2.99-3.34,4.15-5.17,1.02-1.6.81-3.47-.19-4.8-.02,1.62-1.31,2.91-2.93,2.91s-2.91-1.31-2.91-2.93c0-.48.1-.91.31-1.31-.75.35-1.39.91-1.85,1.62-.21.35-.46.69-.71,1.02-1.06,1.41-2.24,2.68-3.57,3.76-4.07,3.39-9.32,5.15-14.97,4.86-2.58-.12-5.11-.75-7.46-1.85-8.22-3.82-13.06-11.86-12.61-20.89.15-2.57.77-5.13,1.87-7.48,3.91-8.43,12.07-12.86,20.25-12.61,4.22.15,8.45,1.52,12.09,4.22,2.35,1.74,4.26,3.9,5.69,6.33.77,1.31,2.1,2.18,3.61,2.22l.27.02c3.3.1,5.54-3.47,3.9-6.33-2.43-4.28-5.92-7.93-10.26-10.68-4.89-3.07-10.42-4.56-15.92-4.56-8.73,0-17.37,3.74-23.25,10.79"/>
    </clipPath>
    <linearGradient id="Sfumatura_senza_nome_167" data-name="Sfumatura senza nome 16" x1="-.6" y1="-.81" x2=".21" y2="-.81" gradientTransform="translate(189.78 -125.1) scale(270.56 -270.56)" xlink:href="#Sfumatura_senza_nome_16"/>
    <clipPath id="clippath-9">
      <path class="st0" d="M143.11,106.19c0-.48.1-.91.31-1.31.69-1.38,2.43-2.11,4.21-1.18.82.43,1.32,1.29,1.32,2.21v.4c0,.95-.46,1.87-1.29,2.34-2.24,1.29-4.55-.31-4.55-2.47M135.91,106.19c0,1.85.5,3.59,1.39,5.09,1.56,2.72,4.36,4.61,7.62,4.96.37.04.73.06,1.1.06,5.59,0,10.11-4.53,10.11-10.11s-4.53-10.11-10.11-10.11-10.11,4.53-10.11,10.11"/>
    </clipPath>
    <linearGradient id="Sfumatura_senza_nome_168" data-name="Sfumatura senza nome 16" x1="-.6" y1="-.8" x2=".21" y2="-.8" gradientTransform="translate(200.1 -109.68) scale(270.56 -270.56)" xlink:href="#Sfumatura_senza_nome_16"/>
    <clipPath id="clippath-10">
      <path class="st0" d="M206.48,116.31c0-1.43,1.16-2.6,2.6-2.6s2.6,1.16,2.6,2.6-1.16,2.6-2.6,2.6-2.6-1.16-2.6-2.6M197.5,116.31c0,6.4,5.18,11.58,11.58,11.58s11.58-5.18,11.58-11.58-5.18-11.58-11.58-11.58-11.58,5.18-11.58,11.58"/>
    </clipPath>
    <linearGradient id="Sfumatura_senza_nome_169" data-name="Sfumatura senza nome 16" x1="-.6" y1="-.76" x2=".21" y2="-.76" gradientTransform="translate(216.16 -89.54) scale(270.56 -270.56)" xlink:href="#Sfumatura_senza_nome_16"/>
    <clipPath id="clippath-11">
      <path class="st0" d="M187.97,38.23c-1.75,1.44-2,4.03-.55,5.78,11.89,14.41,18.44,32.66,18.44,51.38,0,3.74-.27,7.47-.78,11.16.96-.23,1.95-.37,2.97-.37,1.86,0,3.63.41,5.22,1.14.53-3.95.81-7.93.81-11.94,0-20.63-7.22-40.73-20.33-56.62-.81-.99-1.99-1.5-3.17-1.5-.92,0-1.85.31-2.61.94"/>
    </clipPath>
    <linearGradient id="Sfumatura_senza_nome_1610" data-name="Sfumatura senza nome 16" x1="-.6" y1="-.79" x2=".21" y2="-.79" gradientTransform="translate(190.37 -142.33) scale(270.56 -270.56)" xlink:href="#Sfumatura_senza_nome_16"/>
    <clipPath id="clippath-12">
      <path class="st0" d="M4.58,221.94c0,12.13,9.29,20.9,21.71,20.9,6.67,0,12.36-2.38,16.14-6.79l-4.88-4.64c-2.96,3.25-6.62,4.82-10.85,4.82-8.42,0-14.51-5.92-14.51-14.28s6.09-14.28,14.51-14.28c4.24,0,7.89,1.57,10.85,4.76l4.88-4.59c-3.77-4.41-9.46-6.79-16.08-6.79-12.48,0-21.77,8.77-21.77,20.9"/>
    </clipPath>
    <linearGradient id="Sfumatura_senza_nome_1611" data-name="Sfumatura senza nome 16" x1=".78" y1="-.86" x2="1.59" y2="-.86" gradientTransform="translate(215.46 43.3) rotate(90) scale(224.12 -224.12)" xlink:href="#Sfumatura_senza_nome_16"/>
    <clipPath id="clippath-13">
      <rect class="st0" x="115.67" y="201.3" width="7.31" height="40.58"/>
    </clipPath>
    <linearGradient id="Sfumatura_senza_nome_1612" data-name="Sfumatura senza nome 16" x1=".78" y1="-.92" x2="1.59" y2="-.92" gradientTransform="translate(324.44 -25.15) rotate(90) scale(224.12 -224.12)" xlink:href="#Sfumatura_senza_nome_16"/>
    <clipPath id="clippath-14">
      <path class="st0" d="M153,207.79h9.77c8.97,0,14.78,5.46,14.78,13.8s-5.81,13.8-14.78,13.8h-9.77v-27.6ZM145.7,201.3v40.58h17.74c13.16,0,22.15-8.12,22.15-20.29s-8.99-20.29-22.15-20.29h-17.74Z"/>
    </clipPath>
    <linearGradient id="Sfumatura_senza_nome_1613" data-name="Sfumatura senza nome 16" x1=".78" y1="-.93" x2="1.59" y2="-.93" gradientTransform="translate(373.17 -58.26) rotate(90) scale(224.12 -224.12)" xlink:href="#Sfumatura_senza_nome_16"/>
    <clipPath id="clippath-15">
      <path class="st0" d="M209.86,221.94c0-8.3,6.09-14.28,14.28-14.28s14.28,5.98,14.28,14.28-6.09,14.28-14.28,14.28-14.28-5.98-14.28-14.28M202.26,221.94c0,12.02,9.29,20.9,21.88,20.9s21.88-8.82,21.88-20.9-9.29-20.9-21.88-20.9-21.88,8.88-21.88,20.9"/>
    </clipPath>
    <linearGradient id="Sfumatura_senza_nome_1614" data-name="Sfumatura senza nome 16" x1=".78" y1="-.99" x2="1.59" y2="-.99" gradientTransform="translate(446.34 -100.11) rotate(90) scale(224.12 -224.12)" xlink:href="#Sfumatura_senza_nome_16"/>
    <clipPath id="clippath-16">
      <polygon class="st0" points="72.88 201.3 54.25 242.69 62.37 242.69 66.52 232.95 66.52 232.95 68.96 227.27 68.93 227.27 76.59 209.4 84.3 227.27 84.27 227.27 90.9 242.69 99.14 242.69 80.45 201.3 72.88 201.3"/>
    </clipPath>
    <linearGradient id="Sfumatura_senza_nome_1615" data-name="Sfumatura senza nome 16" x1=".78" y1="-.85" x2="1.59" y2="-.85" gradientTransform="translate(267.06 5.28) rotate(90) scale(224.12 -224.12)" xlink:href="#Sfumatura_senza_nome_16"/>
  </defs>
  <g class="st24">
    <g class="st9">
      <rect class="st1" x="93.5" y="48.31" width="136.16" height="148.21" transform="translate(-40.73 109.53) rotate(-33.5)"/>
    </g>
    <g class="st12">
      <rect class="st33" x="115.3" y="46.31" width="79.72" height="93.2" transform="translate(-25.51 101.08) rotate(-33.5)"/>
    </g>
    <g class="st10">
      <rect class="st32" x="17.84" y="-12.57" width="184.79" height="195" transform="translate(-28.56 74.96) rotate(-33.5)"/>
    </g>
    <g class="st11">
      <rect class="st29" x="43.34" y="36.83" width="99.21" height="110.77" transform="translate(-35.46 66.63) rotate(-33.5)"/>
    </g>
    <g class="st17">
      <rect class="st28" x="111.89" y="120.34" width="70.95" height="61.34" transform="translate(-58.87 106.43) rotate(-33.5)"/>
    </g>
    <g class="st14">
      <rect class="st31" x="-9.07" y="-7.82" width="203.83" height="217.27" transform="translate(-40.22 68) rotate(-33.5)"/>
    </g>
    <g class="st13">
      <rect class="st30" x="102.33" y="7.98" width="79.48" height="67.14" transform="translate(.67 85.32) rotate(-33.5)"/>
    </g>
    <g class="st16">
      <rect class="st26" x="80.11" y="53.08" width="83.22" height="83.43" transform="translate(-32.11 82.94) rotate(-33.5)"/>
    </g>
    <g class="st15">
      <rect class="st25" x="132.01" y="92.18" width="28.03" height="28.03" transform="translate(-34.36 98.25) rotate(-33.5)"/>
    </g>
    <g class="st4">
      <rect class="st27" x="193.03" y="100.26" width="32.09" height="32.09" transform="translate(-29.46 134.73) rotate(-33.5)"/>
    </g>
    <g class="st2">
      <rect class="st23" x="168.97" y="35.35" width="62.11" height="73.93" transform="translate(-6.68 122.43) rotate(-33.5)"/>
    </g>
    <g class="st8">
      <rect class="st22" x="-4.66" y="193.8" width="56.34" height="56.28" transform="translate(-151.58 83.53) rotate(-45.63)"/>
    </g>
    <g class="st6">
      <rect class="st21" x="102.1" y="205.04" width="34.32" height="33.81" transform="translate(-122.78 151.98) rotate(-45.63)"/>
    </g>
    <g class="st7">
      <rect class="st20" x="137.09" y="193.46" width="56.97" height="56.96" transform="translate(-108.86 185.09) rotate(-45.63)"/>
    </g>
    <g class="st5">
      <rect class="st19" x="193.9" y="191.69" width="60.48" height="60.51" transform="translate(-91.25 226.95) rotate(-45.63)"/>
    </g>
    <g class="st3">
      <rect class="st18" x="46.77" y="191.99" width="59.85" height="59.91" transform="translate(-135.58 121.55) rotate(-45.63)"/>
    </g>
  </g>
</svg>