<svg width="21" height="21" viewBox="0 0 21 21" fill="none" xmlns="http://www.w3.org/2000/svg">
<path d="M5.08398 2.16634C5.08398 1.7061 4.71089 1.33301 4.25065 1.33301C3.79041 1.33301 3.41732 1.7061 3.41732 2.16634V3.41634H2.16732C1.70708 3.41634 1.33398 3.78944 1.33398 4.24967C1.33398 4.70991 1.70708 5.08301 2.16732 5.08301H3.41732V6.33301C3.41732 6.79325 3.79041 7.16634 4.25065 7.16634C4.71089 7.16634 5.08398 6.79325 5.08398 6.33301V5.08301H6.33398C6.79422 5.08301 7.16732 4.70991 7.16732 4.24967C7.16732 3.78944 6.79422 3.41634 6.33398 3.41634H5.08398V2.16634Z" fill="#00FFF0"/>
<path d="M5.08398 14.6663C5.08398 14.2061 4.71089 13.833 4.25065 13.833C3.79041 13.833 3.41732 14.2061 3.41732 14.6663V15.9163H2.16732C1.70708 15.9163 1.33398 16.2894 1.33398 16.7497C1.33398 17.2099 1.70708 17.583 2.16732 17.583H3.41732V18.833C3.41732 19.2932 3.79041 19.6663 4.25065 19.6663C4.71089 19.6663 5.08398 19.2932 5.08398 18.833V17.583H6.33398C6.79422 17.583 7.16732 17.2099 7.16732 16.7497C7.16732 16.2894 6.79422 15.9163 6.33398 15.9163H5.08398V14.6663Z" fill="#00FFF0"/>
<path d="M12.1118 2.70053C11.988 2.3787 11.6788 2.16634 11.334 2.16634C10.9892 2.16634 10.68 2.3787 10.5562 2.70053L9.11105 6.45791C8.86071 7.10878 8.78205 7.29634 8.67445 7.44767C8.56648 7.59951 8.43382 7.73217 8.28198 7.84014C8.13065 7.94774 7.94309 8.0264 7.29222 8.27674L3.53484 9.72189C3.21301 9.84567 3.00065 10.1549 3.00065 10.4997C3.00065 10.8445 3.21301 11.1537 3.53484 11.2775L7.29222 12.7226C7.94309 12.9729 8.13065 13.0516 8.28198 13.1592C8.43382 13.2672 8.56648 13.3998 8.67445 13.5517C8.78205 13.703 8.86071 13.8906 9.11105 14.5414L10.5562 18.2988C10.68 18.6207 10.9892 18.833 11.334 18.833C11.6788 18.833 11.988 18.6207 12.1118 18.2988L13.5569 14.5414C13.8073 13.8906 13.8859 13.703 13.9935 13.5517C14.1015 13.3998 14.2342 13.2672 14.386 13.1592C14.5373 13.0516 14.7249 12.9729 15.3758 12.7226L19.1331 11.2775C19.455 11.1537 19.6673 10.8445 19.6673 10.4997C19.6673 10.1549 19.455 9.84567 19.1331 9.72189L15.3757 8.27674C14.7249 8.0264 14.5373 7.94774 14.386 7.84014C14.2342 7.73217 14.1015 7.59951 13.9935 7.44767C13.8859 7.29634 13.8073 7.10878 13.5569 6.45791L12.1118 2.70053Z" fill="#00FFF0"/>
</svg>
