<svg width="24" height="24" viewBox="0 0 24 24" fill="none" xmlns="http://www.w3.org/2000/svg">
  <path d="M20.3307 4.37909C18.7535 3.65542 17.0909 3.13957 15.3801 2.8501C15.1648 3.22863 14.9162 3.74077 14.7455 4.15271C12.927 3.8818 11.0788 3.8818 9.25667 4.15271C9.06369 3.70737 8.84473 3.27317 8.60721 2.8501C6.89266 3.13957 5.22636 3.65542 3.65283 4.38651C0.528043 9.044 -0.32181 13.5939 0.101261 18.0695C1.93457 19.4315 3.99054 20.4706 6.17641 21.1349C6.66628 20.4669 7.1042 19.7618 7.47902 19.0233C6.7702 18.7598 6.08363 18.4295 5.43047 18.0435C5.60118 17.9137 5.76447 17.7838 5.92405 17.6539C9.7688 19.4723 14.2296 19.4723 18.0744 17.6539C18.2376 17.7875 18.4046 17.9174 18.5754 18.0435C17.9222 18.4295 17.2356 18.7598 16.5231 19.027C16.8979 19.7655 17.3321 20.4706 17.8257 21.1349C20.0116 20.4706 22.0676 19.4352 23.9009 18.0695C24.3944 12.8776 23.0473 8.37229 20.3307 4.37538V4.37909ZM8.01343 15.3196C6.82957 15.3196 5.85725 14.2359 5.85725 12.9036C5.85725 11.5713 6.80731 10.4765 8.01343 10.4765C9.21955 10.4765 10.1845 11.5602 10.1733 12.8962C10.1622 14.2322 9.21955 15.3196 8.01343 15.3196ZM15.985 15.3196C14.8011 15.3196 13.8288 14.2359 13.8288 12.9036C13.8288 11.5713 14.7789 10.4765 15.985 10.4765C17.1911 10.4765 18.156 11.5602 18.1412 12.8962C18.1263 14.2322 17.1911 15.3196 15.985 15.3196Z" fill="currentColor"/>
</svg>
