<svg
  version="1.1"
  id="Layer_1"
  x="0px"
  y="0px"
  viewBox="0 0 100 100"
  xml:space="preserve"
  width="100"
  height="100">
   <style
   type="text/css"
   id="style1">
     .shadow {
      fill: url(#shadow);
      animation-duration: 5s;
      animation-name: animate-fade;
      animation-delay: 5s;
      animation-fill-mode: backwards;
     }
     @-webkit-keyframes animate-fade {
       0% {
         fill-opacity: 0;
         stroke-width: 1pt;
         }
         40% {
         fill-opacity: 0;
         }
         100% {
         stroke-dashoffset: 0;
         fill-opacity: 1;
         stroke-width: 0pt;
         }
     }
     .circle {
      stroke-dasharray: 100;
      fill:#15e0ed;
      stroke: #15e0ed;
      stroke-linecap: butt;
      stroke-linejoin: miter;
      stroke-miterlimit: 10;
      fill-rule: nonzero;
      -webkit-animation: circle 5s alternate;
      animation: circle 5s alternate;
      }
      @-webkit-keyframes circle {
       0% {
         stroke-dashoffset: 2000;
         fill-opacity: 0;
         stroke-width: 1pt;
         }
         20% {
         fill-opacity: 0;
         }
         40% {
         fill-opacity: 0;
         }
         60% {
         fill-opacity: 0.5;
         }
         80% {
         fill-opacity: 0;
         }
         100% {
         stroke-dashoffset: 0;
         fill-opacity: 1;
         stroke-width: 0pt;
         }
      }
      #bird {
      stroke-dasharray: 100;
      fill: #000000;
      stroke: #000000;
      stroke-linecap: butt;
      stroke-linejoin: miter;
      stroke-miterlimit: 10;
      fill-rule: nonzero;
      -webkit-animation: bird 7s alternate;
      animation: bird 7s alternate;
      }
      @-webkit-keyframes bird {
       0% {
         stroke-dashoffset: 2000;
         fill-opacity: 0;
         stroke-width: 1pt;
         }
         20% {
         fill-opacity: 0;
         }
         40% {
         fill-opacity: 0;
         }
         60% {
         fill-opacity: 0.5;
         }
         80% {
         fill-opacity: 0;
         }
         100% {
         stroke-dashoffset: 0;
         fill-opacity: 1;
         stroke-width: 0pt;
         }
      }
  </style>
   <linearGradient
   id="shadow"
   gradientUnits="userSpaceOnUse"
   x1="61.327202"
   y1="97.571899"
   x2="167.61369"
   y2="91.573601">
   	<stop
   offset="0"
   style="stop-color:#000000;stop-opacity:0.9"
   id="stop1" />
   	<stop
   offset="8.563758e-02"
   style="stop-color:#000909;stop-opacity:0.8229"
   id="stop2" />
   	<stop
   offset="0.2278"
   style="stop-color:#002023;stop-opacity:0.695"
   id="stop3" />
   	<stop
   offset="0.4089"
   style="stop-color:#00464C;stop-opacity:0.532"
   id="stop4" />
   	<stop
   offset="0.6218"
   style="stop-color:#007A85;stop-opacity:0.3404"
   id="stop5" />
   	<stop
   offset="0.8587"
   style="stop-color:#00BCCD;stop-opacity:0.1271"
   id="stop6" />
   	<stop
   offset="1"
   style="stop-color:#00E7FC;stop-opacity:0"
   id="stop7" />
  </linearGradient>
   <g id="g7">
   <circle
     class="circle"
     cx="50"
     cy="50"
     r="50"
     style="stroke-width:0.571429" />
     <polygon
     class="shadow"
     points="162,41.6 164.4,45.8 166.2,49.3 168.2,53.7 169.9,58.1 171.5,62.8 172.9,68.6 174,73.9 174.5,78.4 175,83.7 175,89.9 174.7,94.3 174.1,100 173.4,104.4 171.9,110.6 170,116.7 168.5,120.8 166.7,124.7 164.9,128.3 162.7,132.2 160.3,136.1 156.8,141 154.4,143.9 150.4,148.3 146.2,152.4 141.1,156.7 135.8,160.4 132.8,162.4 128.3,164.9 121.7,168.2 116.6,162.4 80.6,122.1 54.6,61.3 60.6,31.7 141.9,19 146.8,23.2 149.4,25.6 153.4,30 156.3,33.5 159.3,37.5 "
     id="polygon7"
     transform="scale(0.57142857)" />
     <g id="g289" transform="scale(0.57142857)">
     	<g id="g287">
   		<path
      id="bird"
      d="m 80.6,122.1 36,40.3 -12,-25.2 11.2,11.7 L 79.3,83 95,63.4 153.7,39.1 95,40.4 133.2,20.3 60.6,31.7 l -6,29.6 -29.3,1.9 -5.1,25.1 14.7,-12" />
  	</g>
  </g></g>
  </svg>