<svg width="24" height="24" viewBox="0 0 24 24" fill="none" xmlns="http://www.w3.org/2000/svg">
<path d="M15.7498 12.9H5.69918C5.44436 12.9 5.23076 12.8143 5.05838 12.6428C4.886 12.4713 4.7998 12.2588 4.7998 12.0053C4.7998 11.7518 4.886 11.5375 5.05838 11.3625C5.23076 11.1875 5.44436 11.1 5.69918 11.1H15.7498L11.3445 6.69473C11.1647 6.51493 11.0748 6.30419 11.0748 6.06252C11.0748 5.82086 11.1665 5.60437 11.3498 5.41307C11.5331 5.23771 11.7456 5.15002 11.9873 5.15002C12.229 5.15002 12.4399 5.24021 12.62 5.42057L18.5647 11.3727C18.6548 11.4629 18.7206 11.5606 18.7623 11.6658C18.804 11.771 18.8248 11.8838 18.8248 12.004C18.8248 12.1243 18.804 12.237 18.7623 12.3422C18.7206 12.4474 18.6581 12.5417 18.5748 12.625L12.6248 18.575C12.4415 18.7584 12.2331 18.8459 11.9998 18.8375C11.7665 18.8292 11.5581 18.7373 11.3748 18.562C11.1915 18.3707 11.0998 18.1528 11.0998 17.9084C11.0998 17.6639 11.1915 17.4528 11.3748 17.275L15.7498 12.9Z" fill="#F4F4F4"/>
</svg>
