<?xml version="1.0" encoding="UTF-8"?>
<svg width="33" height="32" id="Layer_2" xmlns="http://www.w3.org/2000/svg" viewBox="0 0 482.8 425.41">
  <g>
    <path d="M134.59,260.88c-48.5,4.39-99.88-12-118.43-60.66-6.44-16.9-7.76-39.89-9.59-58.08C3.74,113.89,1.2,84.7.12,56.35-1.3,19.02,10.02-8.46,53.21,2.4c48.33,12.15,96.09,64.77,126.18,102.69,23.41,29.5,44.64,61.06,61.87,94.59,15.61-30.58,34.75-59.39,55.65-86.59C327.83,72.84,385.12,7.56,437.87.61s45.6,46.62,43.26,80.75c-2.19,31.91-4.61,66.72-9.55,98.2-9.76,62.24-65.46,86.58-123.64,81.32-1.29.09-2.64,0-3.88-.43-1.03.09-1.89-.06-2.59-.43-.91.06-2.14-.06-3.02-.43-1.49-.23-1.49-.08,0,.43.91-.25,1.93-.31,2.59.43.76-.24,1.79-.31,2.16.43.28-.29.58-.31.86,0,.83-.35,1.59-.29,2.16.43,39.65,8.42,95.12,32.79,81.77,83.28-7.73,29.25-46.14,65.33-73.9,76.09-64.2,24.88-96.95-54.38-112.14-101.79l-1.12-.26c-3.37,8.56-6.02,17.4-9.37,25.97-21.76,55.52-60.14,108.24-123.91,64.64-21.15-14.46-48.53-41.94-53.79-67.76-9.95-48.86,43.94-71.97,82.55-80.17.56-.72,1.32-.78,2.16-.43.1-.38.56-.27.86,0,.36-.74,1.4-.67,2.16-.43.65-.75,1.68-.68,2.59-.43v-.43c-.89.39-2.08.45-3.02.43-.64.36-1.5.51-2.59.43-1.24.43-2.59.52-3.88.43Z"/>
  </g>
</svg>