<?xml version="1.0" encoding="UTF-8"?>
<svg width="33" height="32" id="Layer_2" xmlns="http://www.w3.org/2000/svg" viewBox="0 0 393.24 420.45">
  <defs>
    <style>
      .cls-1 {
        fill: #fff;
      }

      .cls-2 {
        fill: #000;
      }
    </style>
  </defs>
  <g>
    <path fill-rule="evenodd" clip-rule="evenodd" class="cls-1" d="M112.72,314.46c-.9,18.19,4.38,36.87,19.08,48.41,22.02,17.29,73.3,16.66,100.29,13.46,12.56-1.49,25.35-4.93,37.62-7.87-1.13,4.97,2.91,33.17.39,35.1-2.96,2.26-15.18,6.12-19.38,7.39-47.1,14.31-108.32,11.7-155.21-2.78C9.65,381.65,2.62,279.74.68,204-1.13,133.16-5.2,39.63,77.95,14.19c61.27-18.74,171.33-18.6,232.98-1.45,92.94,25.86,86.32,133.9,77.66,211.1-3.55,31.68-6.92,47.02-32.98,67.02-34.05,26.12-80.42,32.72-122.41,34.59-40.42,1.8-81.21-1.85-120.48-10.99h0Z"/>
    <path fill-rule="evenodd" clip-rule="evenodd" class="cls-2" d="M321.71,254.46h-43v-110.5c0-24.76-30.49-40.66-49.39-21.39-4.25,4.34-10.61,17.51-10.61,23.39v67.5h-44v-68.5c0-5.68-6.73-18.9-10.96-23.04-19.85-19.42-49.04-1.4-49.04,24.04v108.5h-43c-.23-7.15.3-14.39.04-21.54-1.17-32.16-6.03-102.17,8.44-129.48,19.88-37.52,76.22-43.71,102.93-9.9,2.38,3.01,11.9,20.62,13.1,20.91,1.39.33,1.71-.82,2.33-1.65,4.23-5.69,7.15-13.45,11.74-19.26,28.53-36.12,89.01-26.26,105.9,15.93,10.44,26.07,7.61,103.39,5.53,133.49-.26,3.81.16,7.69-.01,11.49h0Z"/>
  </g>
</svg>
