<?xml version="1.0" encoding="UTF-8"?><svg id="Livello_1" xmlns="http://www.w3.org/2000/svg" width="32" height="32" viewBox="0 0 32 32"><defs><style>.cls-1{fill:#fff;}.cls-1,.cls-2{stroke-width:0px;}.cls-2{fill:#000;}</style></defs><rect class="cls-1" width="32" height="32" rx="6.67" ry="6.67"/><path class="cls-2" d="M25.84,15.38c-.04-1.21-1.06-2.15-2.27-2.11-.54.02-1.05.24-1.44.61-1.71-1.17-3.72-1.8-5.78-1.85l.97-4.68,3.21.67c.1.95,1.07,1.6,2.04,1.24.49-.18.86-.64.94-1.15.16-1.03-.69-1.85-1.64-1.74-.47.05-.9.32-1.13.73l-3.68-.73c-.25-.06-.5.1-.56.35h0s-1.11,5.22-1.11,5.22c-2.09.03-4.12.68-5.86,1.85-.88-.83-2.27-.79-3.1.1-.83.88-.79,2.27.1,3.1.17.16.37.3.59.4-.02.22-.02.44,0,.66,0,3.36,3.92,6.1,8.75,6.1s8.75-2.73,8.75-6.1c.01-.22.01-.44,0-.66.75-.38,1.23-1.15,1.21-2h0ZM10.82,16.88c0-.96.9-1.71,1.89-1.45.5.13.92.54,1.06,1.04.27,1-.48,1.92-1.45,1.92-.83,0-1.5-.67-1.5-1.5ZM19.55,21.07v-.06c-1.07.8-2.37,1.21-3.71,1.16-1.34.06-2.64-.35-3.71-1.16-.14-.17-.12-.43.06-.57.15-.12.36-.12.51,0,.9.66,2,1,3.12.94,1.12.06,2.22-.26,3.14-.91.16-.16.43-.16.59,0,.16.16.16.43,0,.59h0ZM19.34,18.5h-.07v-.06c-.95,0-1.7-.91-1.44-1.9.13-.5.54-.92,1.05-1.05,1-.27,1.91.49,1.91,1.45.03.83-.61,1.53-1.44,1.56Z"/></svg>